<svg width="145" height="32" viewBox="0 0 145 32" fill="none" xmlns="http://www.w3.org/2000/svg">
<g clip-path="url(#clip0_82_3352)">
<g clip-path="url(#clip1_82_3352)">
<path d="M27.8342 15.5155C26.2318 12.7329 24.0796 10.5146 21.7727 9.26972C19.3756 7.97748 17.0343 7.85257 15.1913 8.92081C11.4711 11.0745 11.1919 17.3462 14.5598 23.2C16.0806 25.8405 18.1297 27.9985 20.325 29.2735C21.7426 30.0962 23.1302 30.514 24.449 30.514C25.45 30.514 26.3779 30.2685 27.207 29.7904C29.1402 28.6704 30.2055 26.4564 30.2012 23.5575C30.1969 21.0118 29.3592 18.156 27.8342 15.5155ZM24.7798 17.2816C25.9955 19.3965 26.67 21.6235 26.67 23.5618C26.67 24.475 26.5154 26.1032 25.4414 26.7235C24.3717 27.3438 22.8853 26.6675 22.0949 26.2109C20.4238 25.2417 18.8343 23.5446 17.6185 21.4296C15.1183 17.0877 15.2644 12.9698 16.957 11.9877C18.4176 11.1391 22.0476 12.5391 24.7798 17.2816Z" fill="#028E46"/>
<path d="M22.6876 1.01519C20.2819 -0.561335 16.9998 -0.294274 13.4428 1.76468C10.2596 3.60827 7.12354 6.73547 4.62332 10.5734C2.11881 14.407 0.516439 18.5379 0.104032 22.2035C-0.35563 26.2956 0.718347 29.4185 3.11976 30.995C4.13789 31.6626 5.32356 32.0029 6.6467 32.0029C11.2906 32.0029 16.9955 27.8592 21.1797 21.4411C23.6843 17.6075 25.2866 13.4766 25.699 9.81099C26.1587 5.71461 25.089 2.59171 22.6876 1.01519ZM22.1936 9.4104C21.8456 12.5333 20.4366 16.1171 18.2285 19.4984C16.0118 22.8927 13.3225 25.615 10.6462 27.1614C8.34358 28.4924 6.25577 28.8197 5.04862 28.0272C3.85436 27.2432 3.31307 25.2101 3.60949 22.5912C3.95746 19.4683 5.36652 15.8845 7.57461 12.5031C9.78271 9.1218 12.4934 6.39519 15.2084 4.82297C16.6562 3.98732 18.0137 3.54366 19.1349 3.54366C19.775 3.54366 20.3163 3.69011 20.7502 3.9701C21.9487 4.76266 22.4857 6.79147 22.1936 9.4104Z" fill="#0E4924"/>
<path d="M20.3232 29.2735C21.7408 30.0962 23.1284 30.514 24.4472 30.514C25.4482 30.514 26.3761 30.2685 27.2052 29.7904C29.1384 28.6704 30.2037 26.4564 30.1994 23.5575C30.1951 21.0118 29.3574 18.156 27.8367 15.5155C26.2343 12.7329 24.0821 10.5146 21.7752 9.26972C19.3738 7.97748 17.0368 7.85257 15.1938 8.92081L16.9595 11.9877C18.4244 11.1391 22.0501 12.5391 24.7823 17.2859C25.998 19.4008 26.6725 21.6278 26.6725 23.5661C26.6725 24.4793 26.5179 26.1075 25.4439 26.7278C24.3699 27.3481 22.8878 26.6718 22.0974 26.2109L20.3232 29.2735Z" fill="#028E46"/>
<g clip-path="url(#clip2_82_3352)">
<path d="M41.0661 5.9834C37.3853 5.9834 34.5 8.85593 34.5 12.5206C34.5 16.0894 37.3853 18.8827 41.0661 18.8827C42.4941 18.8827 43.6373 18.5408 44.634 17.807C44.8266 18.4282 45.4547 18.8827 45.9908 18.8827C46.8408 18.8827 47.4564 18.2698 47.4564 17.4235V12.5206C47.4564 8.85593 44.6507 5.9834 41.0661 5.9834ZM41.0661 16.0143C39.0352 16.0143 37.3811 14.4467 37.3811 12.5206C37.3811 10.5319 39.0687 8.85176 41.0661 8.85176C43.0008 8.85176 44.5753 10.4986 44.5753 12.5206C44.5753 14.5134 43.0678 16.0143 41.0661 16.0143Z" fill="#028E46"/>
<path d="M56.3997 5.93311C52.8067 5.93311 49.8838 8.84316 49.8838 12.4203V17.4482C49.8838 18.2529 50.5287 18.9074 51.3243 18.9074C52.1451 18.9074 52.79 18.2654 52.79 17.4482V12.4203C52.79 10.4399 54.4106 8.82648 56.3997 8.82648C58.3888 8.82648 60.0094 10.4399 60.0094 12.4203V17.4482C60.0094 18.2529 60.6543 18.9074 61.4499 18.9074C62.2707 18.9074 62.9156 18.2654 62.9156 17.4482V12.4203C62.9156 8.84316 59.9926 5.93311 56.3997 5.93311Z" fill="#028E46"/>
<path d="M71.8367 5.93311C68.2437 5.93311 65.3208 8.84316 65.3208 12.4203C65.3208 15.9974 68.2437 18.9074 71.8367 18.9074H71.8953H71.9581C72.9003 18.9074 74.1817 18.8824 75.8149 17.7984C76.5435 17.3232 76.8157 16.556 76.4891 15.8806C76.2923 15.4929 75.928 15.1927 75.5134 15.0802C75.1616 14.9843 74.8141 15.0385 74.5293 15.2219C73.4363 15.9223 72.5109 16.0141 71.8283 16.0141C70.392 16.0141 69.098 15.1594 68.5201 13.8544H76.8786C77.6868 13.8544 78.3442 13.2124 78.3442 12.4203C78.3526 8.20945 74.9941 5.93311 71.8367 5.93311ZM71.8367 8.82648C73.026 8.82648 74.5712 9.39348 75.1868 10.9611H68.5285C69.1148 9.67281 70.4087 8.82648 71.8367 8.82648Z" fill="#028E46"/>
<path d="M89.859 6.03369C89.0633 6.03369 88.4184 6.67574 88.4184 7.46787V13.6715C88.4184 14.9765 87.3506 16.0396 86.0399 16.0396C84.7292 16.0396 83.6613 14.9765 83.6613 13.6715V7.46787C83.6613 6.67574 83.0164 6.03369 82.2208 6.03369C81.4252 6.03369 80.7803 6.67574 80.7803 7.46787V13.7216C80.8054 16.5816 83.1672 18.9038 86.0399 18.9038C86.8774 18.9038 87.694 18.712 88.4184 18.3493V19.796C88.4184 21.1551 87.2962 22.2641 85.9143 22.2641C84.9679 22.2641 84.1052 21.7304 83.6697 20.8841C83.5148 20.5422 83.2133 20.2754 82.8489 20.1462C82.4804 20.0169 82.091 20.0378 81.756 20.2087C81.4 20.3797 81.1362 20.6757 81.0106 21.0425C80.885 21.4094 80.9101 21.7972 81.0818 22.139C82.0031 23.9985 83.8581 25.1575 85.9184 25.1575C88.9 25.1575 91.3288 22.7519 91.3288 19.796V7.46787C91.3246 6.67991 90.6672 6.03369 89.859 6.03369Z" fill="#028E46"/>
</g>
<path d="M100.871 19.8364C100.027 19.8364 99.2689 19.6897 98.5963 19.3961C97.9359 19.0904 97.4161 18.6746 97.037 18.1487C96.6578 17.6106 96.4622 16.993 96.4499 16.2959H98.2294C98.2905 16.8952 98.5351 17.4027 98.9632 17.8185C99.4034 18.2221 100.039 18.4239 100.871 18.4239C101.666 18.4239 102.29 18.2282 102.742 17.8369C103.207 17.4333 103.439 16.9196 103.439 16.2959C103.439 15.8067 103.305 15.4092 103.036 15.1035C102.767 14.7978 102.43 14.5654 102.027 14.4064C101.623 14.2474 101.079 14.0762 100.394 13.8928C99.5502 13.6726 98.8714 13.4525 98.3578 13.2324C97.8564 13.0122 97.4222 12.6698 97.0553 12.2051C96.7007 11.7281 96.5233 11.0921 96.5233 10.2972C96.5233 9.60011 96.7007 8.98251 97.0553 8.4444C97.41 7.90629 97.9053 7.49048 98.5412 7.19697C99.1894 6.90345 99.9293 6.7567 100.761 6.7567C101.959 6.7567 102.938 7.05633 103.696 7.65558C104.467 8.25484 104.901 9.04978 104.999 10.0404H103.164C103.103 9.5512 102.846 9.12315 102.394 8.75626C101.941 8.37714 101.342 8.18758 100.596 8.18758C99.8987 8.18758 99.33 8.37102 98.8898 8.73792C98.4495 9.09258 98.2294 9.594 98.2294 10.2422C98.2294 10.7069 98.3578 11.086 98.6146 11.3795C98.8837 11.6731 99.2078 11.8993 99.5869 12.0583C99.9782 12.2051 100.522 12.3763 101.22 12.5719C102.063 12.8043 102.742 13.0367 103.256 13.269C103.769 13.4892 104.21 13.8377 104.577 14.3147C104.944 14.7794 105.127 15.4154 105.127 16.2225C105.127 16.8462 104.962 17.4333 104.632 17.9836C104.301 18.534 103.812 18.9803 103.164 19.3228C102.516 19.6652 101.752 19.8364 100.871 19.8364ZM106.96 14.6449C106.96 13.6176 107.168 12.7187 107.584 11.9482C107.999 11.1655 108.568 10.5602 109.29 10.1321C110.023 9.70407 110.837 9.49005 111.729 9.49005C112.61 9.49005 113.374 9.67961 114.023 10.0587C114.671 10.4379 115.154 10.9148 115.472 11.4896V9.65515H117.159V19.708H115.472V17.8369C115.142 18.4239 114.646 18.9131 113.986 19.3044C113.338 19.6835 112.579 19.8731 111.711 19.8731C110.818 19.8731 110.011 19.653 109.29 19.2127C108.568 18.7724 107.999 18.1548 107.584 17.3599C107.168 16.565 106.96 15.66 106.96 14.6449ZM115.472 14.6632C115.472 13.905 115.319 13.2446 115.013 12.682C114.707 12.1194 114.292 11.6914 113.766 11.3979C113.252 11.0921 112.683 10.9393 112.06 10.9393C111.436 10.9393 110.867 11.086 110.354 11.3795C109.84 11.6731 109.43 12.1011 109.125 12.6637C108.819 13.2262 108.666 13.8866 108.666 14.6449C108.666 15.4154 108.819 16.088 109.125 16.6628C109.43 17.2254 109.84 17.6595 110.354 17.9653C110.867 18.2588 111.436 18.4055 112.06 18.4055C112.683 18.4055 113.252 18.2588 113.766 17.9653C114.292 17.6595 114.707 17.2254 115.013 16.6628C115.319 16.088 115.472 15.4215 115.472 14.6632ZM121.65 6.13298V19.708H119.981V6.13298H121.65ZM133.667 14.2963C133.667 14.6143 133.649 14.9506 133.612 15.3053H125.577C125.638 16.2959 125.975 17.0725 126.586 17.6351C127.21 18.1854 127.962 18.4606 128.843 18.4606C129.564 18.4606 130.164 18.2955 130.64 17.9653C131.13 17.6228 131.472 17.1703 131.668 16.6078H133.466C133.196 17.5739 132.658 18.3627 131.851 18.9742C131.044 19.5735 130.041 19.8731 128.843 19.8731C127.889 19.8731 127.033 19.6591 126.274 19.231C125.528 18.803 124.941 18.1976 124.513 17.4149C124.085 16.62 123.871 15.7028 123.871 14.6632C123.871 13.6237 124.079 12.7126 124.495 11.9299C124.911 11.1472 125.492 10.5479 126.238 10.1321C126.996 9.70407 127.864 9.49005 128.843 9.49005C129.797 9.49005 130.64 9.69795 131.374 10.1138C132.108 10.5296 132.671 11.1044 133.062 11.8382C133.466 12.5597 133.667 13.3791 133.667 14.2963ZM131.943 13.9478C131.943 13.3118 131.802 12.7676 131.521 12.3151C131.24 11.8504 130.854 11.5018 130.365 11.2695C129.888 11.0249 129.356 10.9026 128.769 10.9026C127.925 10.9026 127.204 11.1716 126.605 11.7097C126.018 12.2479 125.681 12.9939 125.596 13.9478H131.943ZM139.43 19.8731C138.659 19.8731 137.968 19.7447 137.357 19.4879C136.745 19.2188 136.262 18.8519 135.908 18.3872C135.553 17.9102 135.357 17.366 135.32 16.7545H137.045C137.094 17.2559 137.326 17.6656 137.742 17.9836C138.17 18.3016 138.726 18.4606 139.411 18.4606C140.047 18.4606 140.549 18.3199 140.916 18.0386C141.283 17.7574 141.466 17.4027 141.466 16.9747C141.466 16.5344 141.27 16.2103 140.879 16.0024C140.488 15.7823 139.882 15.5682 139.063 15.3603C138.317 15.1647 137.705 14.969 137.228 14.7733C136.764 14.5654 136.36 14.2658 136.018 13.8744C135.687 13.4708 135.522 12.945 135.522 12.2968C135.522 11.7831 135.675 11.3123 135.981 10.8842C136.287 10.4562 136.721 10.1199 137.283 9.87528C137.846 9.61846 138.488 9.49005 139.21 9.49005C140.322 9.49005 141.221 9.77133 141.906 10.3339C142.591 10.8965 142.958 11.6669 143.007 12.6453H141.338C141.301 12.1194 141.087 11.6975 140.695 11.3795C140.316 11.0616 139.803 10.9026 139.155 10.9026C138.555 10.9026 138.078 11.031 137.724 11.2878C137.369 11.5446 137.192 11.881 137.192 12.2968C137.192 12.627 137.296 12.9021 137.504 13.1223C137.724 13.3302 137.993 13.5014 138.311 13.6359C138.641 13.7582 139.093 13.8989 139.668 14.0579C140.39 14.2535 140.977 14.4492 141.429 14.6449C141.882 14.8283 142.267 15.1096 142.585 15.4887C142.915 15.8679 143.086 16.3632 143.099 16.9747C143.099 17.525 142.946 18.0203 142.64 18.4606C142.334 18.9008 141.9 19.2494 141.338 19.5062C140.787 19.7508 140.151 19.8731 139.43 19.8731Z" fill="#0E4924"/>
</g>
</g>
<defs>
<clipPath id="clip0_82_3352">
<rect width="145" height="32" fill="white"/>
</clipPath>
<clipPath id="clip1_82_3352">
<rect width="167" height="32" fill="white"/>
</clipPath>
<clipPath id="clip2_82_3352">
<rect width="57.2352" height="26.4163" fill="white" transform="translate(34.5)"/>
</clipPath>
</defs>
</svg>
