<svg width="110" height="24" viewBox="0 0 110 24" fill="none" xmlns="http://www.w3.org/2000/svg">
<g clip-path="url(#clip0_82_3292)">
<path d="M21.5005 11.6366C20.2987 9.54968 18.6846 7.88593 16.9544 6.95229C15.1565 5.98311 13.4006 5.88943 12.0184 6.69061C9.2282 8.3059 9.01877 13.0096 11.5448 17.4C12.6853 19.3803 14.2222 20.9989 15.8686 21.9551C16.9318 22.5722 17.9725 22.8855 18.9616 22.8855C19.7124 22.8855 20.4083 22.7014 21.0301 22.3428C22.48 21.5028 23.279 19.8423 23.2758 17.6681C23.2726 15.7589 22.6443 13.617 21.5005 11.6366ZM19.2097 12.9612C20.1215 14.5474 20.6274 16.2176 20.6274 17.6714C20.6274 18.3562 20.5114 19.5774 19.7059 20.0426C18.9037 20.5078 17.7889 20.0006 17.196 19.6582C15.9427 18.9313 14.7506 17.6584 13.8388 16.0722C11.9636 12.8158 12.0732 9.72736 13.3426 8.99079C14.4381 8.35436 17.1606 9.4043 19.2097 12.9612Z" fill="#028E46"/>
<path d="M17.6407 0.761392C15.8364 -0.421001 13.3749 -0.220705 10.7071 1.32351C8.31966 2.7062 5.96766 5.05161 4.09249 7.93005C2.21411 10.8053 1.01233 13.9034 0.703024 16.6526C0.358278 19.7217 1.16376 22.0639 2.96482 23.2462C3.72842 23.747 4.61767 24.0022 5.61002 24.0022C9.09293 24.0022 13.3716 20.8944 16.5098 16.0808C18.3882 13.2056 19.59 10.1075 19.8993 7.35824C20.244 4.28596 19.4418 1.94379 17.6407 0.761392ZM17.2702 7.0578C17.0092 9.39997 15.9524 12.0878 14.2963 14.6238C12.6338 17.1695 10.6169 19.2112 8.60964 20.371C6.88268 21.3693 5.31683 21.6148 4.41146 21.0204C3.51577 20.4324 3.10981 18.9076 3.33212 16.9434C3.59309 14.6012 4.64989 11.9134 6.30596 9.37736C7.96203 6.84135 9.99507 4.79639 12.0313 3.61723C13.1171 2.99049 14.1352 2.65774 14.9762 2.65774C15.4562 2.65774 15.8622 2.76758 16.1876 2.97757C17.0865 3.572 17.4893 5.0936 17.2702 7.0578Z" fill="#0E4924"/>
<path d="M15.8675 21.9551C16.9307 22.5722 17.9714 22.8855 18.9605 22.8855C19.7113 22.8855 20.4072 22.7014 21.029 22.3428C22.4789 21.5028 23.2779 19.8423 23.2747 17.6681C23.2715 15.7589 22.6432 13.617 21.5026 11.6366C20.3009 9.54968 18.6867 7.88593 16.9565 6.95229C15.1554 5.98311 13.4027 5.88943 12.0205 6.69061L13.3447 8.99079C14.4434 8.35436 17.1627 9.4043 19.2119 12.9644C20.1237 14.5506 20.6295 16.2208 20.6295 17.6746C20.6295 18.3595 20.5135 19.5806 19.708 20.0458C18.9025 20.511 17.791 20.0038 17.1981 19.6582L15.8675 21.9551Z" fill="#028E46"/>
<g clip-path="url(#clip1_82_3292)">
<path d="M31.2996 4.4873C28.5389 4.4873 26.375 6.6417 26.375 9.3902C26.375 12.0668 28.5389 14.1618 31.2996 14.1618C32.3706 14.1618 33.228 13.9054 33.9755 13.355C34.12 13.8209 34.5911 14.1618 34.9931 14.1618C35.6306 14.1618 36.0923 13.7021 36.0923 13.0674V9.3902C36.0923 6.6417 33.988 4.4873 31.2996 4.4873ZM31.2996 12.0105C29.7764 12.0105 28.5358 10.8348 28.5358 9.3902C28.5358 7.89869 29.8015 6.63857 31.2996 6.63857C32.7506 6.63857 33.9315 7.87368 33.9315 9.3902C33.9315 10.8848 32.8009 12.0105 31.2996 12.0105Z" fill="#028E46"/>
<path d="M42.8 4.44971C40.1053 4.44971 37.9131 6.63224 37.9131 9.31508V13.0861C37.9131 13.6895 38.3968 14.1804 38.9935 14.1804C39.6091 14.1804 40.0927 13.6989 40.0927 13.0861V9.31508C40.0927 7.82983 41.3082 6.61974 42.8 6.61974C44.2918 6.61974 45.5073 7.82983 45.5073 9.31508V13.0861C45.5073 13.6895 45.991 14.1804 46.5877 14.1804C47.2033 14.1804 47.6869 13.6989 47.6869 13.0861V9.31508C47.6869 6.63224 45.4947 4.44971 42.8 4.44971Z" fill="#028E46"/>
<path d="M54.3776 4.44971C51.6829 4.44971 49.4907 6.63224 49.4907 9.31508C49.4907 11.9979 51.6829 14.1804 54.3776 14.1804H54.4216H54.4687C55.1754 14.1804 56.1364 14.1617 57.3613 13.3487C57.9078 12.9922 58.1119 12.4169 57.867 11.9104C57.7193 11.6196 57.4461 11.3944 57.1352 11.31C56.8714 11.2381 56.6107 11.2787 56.3971 11.4163C55.5774 11.9416 54.8833 12.0104 54.3714 12.0104C53.2941 12.0104 52.3236 11.3694 51.8902 10.3907H58.159C58.7652 10.3907 59.2583 9.90918 59.2583 9.31508C59.2646 6.15696 56.7457 4.44971 54.3776 4.44971ZM54.3776 6.61974C55.2696 6.61974 56.4285 7.04499 56.8902 8.22068H51.8965C52.3362 7.25449 53.3067 6.61974 54.3776 6.61974Z" fill="#028E46"/>
<path d="M67.894 4.52539C67.2973 4.52539 66.8136 5.00692 66.8136 5.60102V10.2538C66.8136 11.2325 66.0127 12.0298 65.0297 12.0298C64.0466 12.0298 63.2458 11.2325 63.2458 10.2538V5.60102C63.2458 5.00692 62.7621 4.52539 62.1654 4.52539C61.5686 4.52539 61.085 5.00692 61.085 5.60102V10.2913C61.1038 12.4363 62.8752 14.178 65.0297 14.178C65.6578 14.178 66.2702 14.0341 66.8136 13.7621V14.8471C66.8136 15.8665 65.9719 16.6982 64.9354 16.6982C64.2257 16.6982 63.5787 16.298 63.252 15.6632C63.1358 15.4068 62.9097 15.2067 62.6365 15.1098C62.3601 15.0128 62.068 15.0285 61.8167 15.1567C61.5498 15.2849 61.3519 15.5069 61.2577 15.782C61.1635 16.0572 61.1823 16.348 61.3111 16.6044C62.002 17.999 63.3934 18.8682 64.9386 18.8682C67.1748 18.8682 68.9964 17.064 68.9964 14.8471V5.60102C68.9932 5.01005 68.5001 4.52539 67.894 4.52539Z" fill="#028E46"/>
</g>
<path d="M76.1532 15.0026C75.5204 15.0026 74.9517 14.8925 74.4472 14.6724C73.9519 14.443 73.5621 14.1312 73.2777 13.7368C72.9934 13.3332 72.8466 12.87 72.8375 12.3472H74.172C74.2179 12.7966 74.4013 13.1773 74.7224 13.4891C75.0526 13.7918 75.5295 13.9432 76.1532 13.9432C76.7494 13.9432 77.2172 13.7964 77.5566 13.5029C77.9052 13.2002 78.0794 12.815 78.0794 12.3472C78.0794 11.9803 77.9785 11.6822 77.7767 11.4529C77.575 11.2236 77.3227 11.0493 77.02 10.9301C76.7173 10.8108 76.3092 10.6824 75.7955 10.5448C75.1626 10.3797 74.6536 10.2146 74.2683 10.0495C73.8923 9.88441 73.5667 9.62758 73.2915 9.27903C73.0255 8.92131 72.8925 8.44435 72.8925 7.84815C72.8925 7.32533 73.0255 6.86213 73.2915 6.45855C73.5575 6.05496 73.929 5.74311 74.4059 5.52297C74.8921 5.30283 75.447 5.19277 76.0707 5.19277C76.9696 5.19277 77.7034 5.41749 78.2721 5.86693C78.8499 6.31638 79.1755 6.91258 79.2489 7.65553H77.8731C77.8272 7.28864 77.6346 6.96761 77.2952 6.69244C76.9558 6.4081 76.5064 6.26593 75.9469 6.26593C75.424 6.26593 74.9975 6.40351 74.6673 6.67868C74.3371 6.94468 74.172 7.32074 74.172 7.80688C74.172 8.15542 74.2683 8.43977 74.461 8.6599C74.6627 8.88004 74.9058 9.04973 75.1902 9.16897C75.4837 9.27903 75.8918 9.40745 76.4147 9.5542C77.0475 9.72848 77.5566 9.90275 77.9419 10.077C78.3271 10.2421 78.6573 10.5035 78.9325 10.8613C79.2076 11.2098 79.3452 11.6868 79.3452 12.2921C79.3452 12.7599 79.2214 13.2002 78.9737 13.613C78.7261 14.0257 78.3592 14.3605 77.8731 14.6173C77.3869 14.8741 76.8137 15.0026 76.1532 15.0026ZM80.7199 11.1089C80.7199 10.3384 80.8758 9.66427 81.1877 9.08642C81.4995 8.49939 81.926 8.04536 82.4672 7.72433C83.0175 7.40329 83.6275 7.24278 84.2971 7.24278C84.9575 7.24278 85.5308 7.38495 86.0169 7.66929C86.503 7.95363 86.8653 8.31135 87.1038 8.74245V7.36661H88.3696V14.9062H87.1038V13.5029C86.8562 13.9432 86.4847 14.31 85.9894 14.6036C85.5032 14.8879 84.9346 15.0301 84.2833 15.0301C83.6137 15.0301 83.0084 14.865 82.4672 14.5348C81.926 14.2046 81.4995 13.7414 81.1877 13.1452C80.8758 12.549 80.7199 11.8702 80.7199 11.1089ZM87.1038 11.1227C87.1038 10.554 86.9892 10.0587 86.7598 9.63675C86.5305 9.21483 86.2187 8.8938 85.8243 8.67366C85.439 8.44435 85.0125 8.3297 84.5447 8.3297C84.0769 8.3297 83.6504 8.43977 83.2652 8.6599C82.88 8.88004 82.5727 9.20107 82.3434 9.623C82.1141 10.0449 81.9994 10.5402 81.9994 11.1089C81.9994 11.6868 82.1141 12.1912 82.3434 12.6223C82.5727 13.0443 82.88 13.3699 83.2652 13.5992C83.6504 13.8193 84.0769 13.9294 84.5447 13.9294C85.0125 13.9294 85.439 13.8193 85.8243 13.5992C86.2187 13.3699 86.5305 13.0443 86.7598 12.6223C86.9892 12.1912 87.1038 11.6914 87.1038 11.1227ZM91.7374 4.72498V14.9062H90.4854V4.72498H91.7374ZM100.75 10.8475C100.75 11.086 100.737 11.3382 100.709 11.6042H94.683C94.7289 12.3472 94.9811 12.9296 95.4397 13.3515C95.9075 13.7643 96.4716 13.9707 97.132 13.9707C97.6732 13.9707 98.1226 13.8468 98.4803 13.5992C98.8472 13.3424 99.1041 13.003 99.2508 12.5811H100.599C100.397 13.3057 99.9938 13.8973 99.3884 14.3559C98.783 14.8054 98.0309 15.0301 97.132 15.0301C96.4166 15.0301 95.7745 14.8696 95.2058 14.5485C94.6463 14.2275 94.206 13.7735 93.885 13.1864C93.564 12.5902 93.4035 11.9023 93.4035 11.1227C93.4035 10.343 93.5594 9.65968 93.8713 9.07266C94.1831 8.48563 94.6188 8.03618 95.1783 7.72433C95.747 7.40329 96.3982 7.24278 97.132 7.24278C97.8475 7.24278 98.4803 7.39871 99.0307 7.71057C99.581 8.02243 100.003 8.45353 100.296 9.00386C100.599 9.54503 100.75 10.1596 100.75 10.8475ZM99.4572 10.5861C99.4572 10.1091 99.3517 9.70096 99.1408 9.36158C98.9298 9.01304 98.6409 8.75163 98.274 8.57735C97.9163 8.39391 97.5173 8.30218 97.077 8.30218C96.4441 8.30218 95.9029 8.50397 95.4535 8.90755C95.0132 9.31114 94.761 9.87065 94.6968 10.5861H99.4572ZM105.072 15.0301C104.494 15.0301 103.976 14.9338 103.518 14.7411C103.059 14.5394 102.697 14.2642 102.431 13.9156C102.165 13.5579 102.018 13.1498 101.99 12.6911H103.284C103.32 13.0672 103.495 13.3745 103.806 13.613C104.128 13.8514 104.545 13.9707 105.059 13.9707C105.535 13.9707 105.912 13.8652 106.187 13.6542C106.462 13.4433 106.599 13.1773 106.599 12.8562C106.599 12.526 106.453 12.283 106.159 12.127C105.866 11.9619 105.412 11.8014 104.797 11.6455C104.238 11.4987 103.779 11.352 103.421 11.2052C103.073 11.0493 102.77 10.8246 102.513 10.5311C102.266 10.2284 102.142 9.83396 102.142 9.34783C102.142 8.96259 102.256 8.60945 102.486 8.28842C102.715 7.96739 103.041 7.71515 103.463 7.53171C103.884 7.33909 104.366 7.24278 104.907 7.24278C105.742 7.24278 106.416 7.45374 106.93 7.87567C107.443 8.2976 107.718 8.87545 107.755 9.60924H106.503C106.476 9.21483 106.315 8.89838 106.022 8.6599C105.737 8.42142 105.352 8.30218 104.866 8.30218C104.416 8.30218 104.059 8.39849 103.793 8.59111C103.527 8.78373 103.394 9.03597 103.394 9.34783C103.394 9.59548 103.472 9.80186 103.628 9.96696C103.793 10.1229 103.995 10.2513 104.233 10.3522C104.481 10.4439 104.82 10.5494 105.251 10.6686C105.792 10.8154 106.233 10.9622 106.572 11.1089C106.911 11.2465 107.2 11.4575 107.439 11.7418C107.686 12.0261 107.815 12.3976 107.824 12.8562C107.824 13.269 107.709 13.6405 107.48 13.9707C107.251 14.3009 106.925 14.5623 106.503 14.7549C106.09 14.9384 105.613 15.0301 105.072 15.0301Z" fill="#0E4924"/>
</g>
<defs>
<clipPath id="clip0_82_3292">
<rect width="125.25" height="24" fill="white" transform="translate(0.625)"/>
</clipPath>
<clipPath id="clip1_82_3292">
<rect width="42.9264" height="19.8122" fill="white" transform="translate(26.375)"/>
</clipPath>
</defs>
</svg>
