<svg width="16" height="17" viewBox="0 0 16 17" fill="none" xmlns="http://www.w3.org/2000/svg">
<path d="M7.97781 12.5771C7.5898 12.5771 7.25721 12.4168 7.03548 12.1496L1.54779 6.21696C1.2152 5.78939 1.27063 5.14802 1.71408 4.82734C2.15753 4.50666 2.76728 4.50666 3.09987 4.93423L7.86695 10.172C7.92238 10.2255 7.97781 10.2255 8.08868 10.172L12.8558 4.93423C13.2438 4.50666 13.8535 4.45321 14.297 4.82734C14.7404 5.20147 14.7959 5.78939 14.4078 6.21696C14.4078 6.21696 14.4078 6.21696 14.3524 6.27041L8.92014 12.203C8.69842 12.4168 8.3104 12.5771 7.97781 12.5771Z" fill="#909FBA"/>
</svg>
