<svg width="12" height="20" viewBox="0 0 12 20" fill="none" xmlns="http://www.w3.org/2000/svg">
<path d="M0 10C0 9.41511 0.238915 8.91378 0.637107 8.57956L9.5566 0.391133C10.1937 -0.193754 11.0697 -0.110199 11.6272 0.558244C12.105 1.22669 12.105 2.1458 11.4679 2.64713L3.66337 9.83289C3.58373 9.91645 3.58373 10 3.66337 10.0836L11.4679 17.2693C12.105 17.8542 12.1847 18.7733 11.6272 19.4418C11.0697 20.1102 10.1937 20.1938 9.5566 19.6089C9.5566 19.6089 9.5566 19.6089 9.47697 19.5253L0.637107 11.4204C0.238915 11.0862 0 10.5013 0 10Z" fill="#0B1932"/>
</svg>
