<svg width="16" height="17" viewBox="0 0 16 17" fill="none" xmlns="http://www.w3.org/2000/svg">
<path d="M4.99935 7.57715H4.33268C4.15587 7.57715 3.9863 7.64739 3.86128 7.77241C3.73625 7.89743 3.66602 8.067 3.66602 8.24381C3.66602 8.42063 3.73625 8.5902 3.86128 8.71522C3.9863 8.84024 4.15587 8.91048 4.33268 8.91048H4.99935C5.17616 8.91048 5.34573 8.84024 5.47075 8.71522C5.59578 8.5902 5.66602 8.42063 5.66602 8.24381C5.66602 8.067 5.59578 7.89743 5.47075 7.77241C5.34573 7.64739 5.17616 7.57715 4.99935 7.57715Z" fill="#909FBA"/>
<path d="M8.33333 7.57715H7.66667C7.48986 7.57715 7.32029 7.64739 7.19526 7.77241C7.07024 7.89743 7 8.067 7 8.24381C7 8.42063 7.07024 8.5902 7.19526 8.71522C7.32029 8.84024 7.48986 8.91048 7.66667 8.91048H8.33333C8.51014 8.91048 8.67971 8.84024 8.80474 8.71522C8.92976 8.5902 9 8.42063 9 8.24381C9 8.067 8.92976 7.89743 8.80474 7.77241C8.67971 7.64739 8.51014 7.57715 8.33333 7.57715Z" fill="#909FBA"/>
<path d="M11.6663 7.57715H10.9997C10.8229 7.57715 10.6533 7.64739 10.5283 7.77241C10.4032 7.89743 10.333 8.067 10.333 8.24381C10.333 8.42063 10.4032 8.5902 10.5283 8.71522C10.6533 8.84024 10.8229 8.91048 10.9997 8.91048H11.6663C11.8432 8.91048 12.0127 8.84024 12.1377 8.71522C12.2628 8.5902 12.333 8.42063 12.333 8.24381C12.333 8.067 12.2628 7.89743 12.1377 7.77241C12.0127 7.64739 11.8432 7.57715 11.6663 7.57715Z" fill="#909FBA"/>
<path d="M4.99935 10.2437H4.33268C4.15587 10.2437 3.9863 10.3139 3.86128 10.4389C3.73625 10.5639 3.66602 10.7335 3.66602 10.9103C3.66602 11.0871 3.73625 11.2567 3.86128 11.3817C3.9863 11.5067 4.15587 11.577 4.33268 11.577H4.99935C5.17616 11.577 5.34573 11.5067 5.47075 11.3817C5.59578 11.2567 5.66602 11.0871 5.66602 10.9103C5.66602 10.7335 5.59578 10.5639 5.47075 10.4389C5.34573 10.3139 5.17616 10.2437 4.99935 10.2437Z" fill="#909FBA"/>
<path d="M8.33333 10.2437H7.66667C7.48986 10.2437 7.32029 10.3139 7.19526 10.4389C7.07024 10.5639 7 10.7335 7 10.9103C7 11.0871 7.07024 11.2567 7.19526 11.3817C7.32029 11.5067 7.48986 11.577 7.66667 11.577H8.33333C8.51014 11.577 8.67971 11.5067 8.80474 11.3817C8.92976 11.2567 9 11.0871 9 10.9103C9 10.7335 8.92976 10.5639 8.80474 10.4389C8.67971 10.3139 8.51014 10.2437 8.33333 10.2437Z" fill="#909FBA"/>
<path d="M11.6663 10.2437H10.9997C10.8229 10.2437 10.6533 10.3139 10.5283 10.4389C10.4032 10.5639 10.333 10.7335 10.333 10.9103C10.333 11.0871 10.4032 11.2567 10.5283 11.3817C10.6533 11.5067 10.8229 11.577 10.9997 11.577H11.6663C11.8432 11.577 12.0127 11.5067 12.1377 11.3817C12.2628 11.2567 12.333 11.0871 12.333 10.9103C12.333 10.7335 12.2628 10.5639 12.1377 10.4389C12.0127 10.3139 11.8432 10.2437 11.6663 10.2437Z" fill="#909FBA"/>
<path d="M4.99935 12.9106H4.33268C4.15587 12.9106 3.9863 12.9809 3.86128 13.1059C3.73625 13.2309 3.66602 13.4005 3.66602 13.5773C3.66602 13.7541 3.73625 13.9237 3.86128 14.0487C3.9863 14.1737 4.15587 14.244 4.33268 14.244H4.99935C5.17616 14.244 5.34573 14.1737 5.47075 14.0487C5.59578 13.9237 5.66602 13.7541 5.66602 13.5773C5.66602 13.4005 5.59578 13.2309 5.47075 13.1059C5.34573 12.9809 5.17616 12.9106 4.99935 12.9106Z" fill="#909FBA"/>
<path d="M8.33333 12.9106H7.66667C7.48986 12.9106 7.32029 12.9809 7.19526 13.1059C7.07024 13.2309 7 13.4005 7 13.5773C7 13.7541 7.07024 13.9237 7.19526 14.0487C7.32029 14.1737 7.48986 14.244 7.66667 14.244H8.33333C8.51014 14.244 8.67971 14.1737 8.80474 14.0487C8.92976 13.9237 9 13.7541 9 13.5773C9 13.4005 8.92976 13.2309 8.80474 13.1059C8.67971 12.9809 8.51014 12.9106 8.33333 12.9106Z" fill="#909FBA"/>
<path d="M11.6663 12.9106H10.9997C10.8229 12.9106 10.6533 12.9809 10.5283 13.1059C10.4032 13.2309 10.333 13.4005 10.333 13.5773C10.333 13.7541 10.4032 13.9237 10.5283 14.0487C10.6533 14.1737 10.8229 14.244 10.9997 14.244H11.6663C11.8432 14.244 12.0127 14.1737 12.1377 14.0487C12.2628 13.9237 12.333 13.7541 12.333 13.5773C12.333 13.4005 12.2628 13.2309 12.1377 13.1059C12.0127 12.9809 11.8432 12.9106 11.6663 12.9106Z" fill="#909FBA"/>
<path d="M14.333 2.57715H12.4997C12.4555 2.57715 12.4131 2.55959 12.3818 2.52833C12.3506 2.49708 12.333 2.45468 12.333 2.41048V1.24382C12.333 1.067 12.2628 0.897435 12.1377 0.772411C12.0127 0.647386 11.8432 0.577148 11.6663 0.577148C11.4895 0.577148 11.32 0.647386 11.1949 0.772411C11.0699 0.897435 10.9997 1.067 10.9997 1.24382V4.41048C10.9997 4.54309 10.947 4.67027 10.8532 4.76404C10.7595 4.8578 10.6323 4.91048 10.4997 4.91048C10.3671 4.91048 10.2399 4.8578 10.1461 4.76404C10.0524 4.67027 9.99967 4.54309 9.99967 4.41048V2.91048C9.99967 2.82208 9.96456 2.73729 9.90204 2.67478C9.83953 2.61227 9.75475 2.57715 9.66634 2.57715H5.49967C5.45547 2.57715 5.41308 2.55959 5.38182 2.52833C5.35057 2.49708 5.33301 2.45468 5.33301 2.41048V1.24382C5.33301 1.067 5.26277 0.897435 5.13775 0.772411C5.01272 0.647386 4.84315 0.577148 4.66634 0.577148C4.48953 0.577148 4.31996 0.647386 4.19494 0.772411C4.06991 0.897435 3.99967 1.067 3.99967 1.24382V4.41048C3.99967 4.54309 3.947 4.67027 3.85323 4.76404C3.75946 4.8578 3.63228 4.91048 3.49967 4.91048C3.36707 4.91048 3.23989 4.8578 3.14612 4.76404C3.05235 4.67027 2.99967 4.54309 2.99967 4.41048V2.91048C2.99967 2.82208 2.96456 2.73729 2.90204 2.67478C2.83953 2.61227 2.75475 2.57715 2.66634 2.57715H1.66634C1.31272 2.57715 0.973581 2.71762 0.723532 2.96767C0.473484 3.21772 0.333008 3.55686 0.333008 3.91048V15.2438C0.333008 15.5974 0.473484 15.9366 0.723532 16.1866C0.973581 16.4367 1.31272 16.5771 1.66634 16.5771H14.333C14.6866 16.5771 15.0258 16.4367 15.2758 16.1866C15.5259 15.9366 15.6663 15.5974 15.6663 15.2438V3.91048C15.6663 3.55686 15.5259 3.21772 15.2758 2.96767C15.0258 2.71762 14.6866 2.57715 14.333 2.57715ZM14.333 14.9105C14.333 14.9989 14.2979 15.0837 14.2354 15.1462C14.1729 15.2087 14.0881 15.2438 13.9997 15.2438H1.99967C1.91127 15.2438 1.82648 15.2087 1.76397 15.1462C1.70146 15.0837 1.66634 14.9989 1.66634 14.9105V6.91048C1.66634 6.82208 1.70146 6.73729 1.76397 6.67478C1.82648 6.61227 1.91127 6.57715 1.99967 6.57715H13.9997C14.0881 6.57715 14.1729 6.61227 14.2354 6.67478C14.2979 6.73729 14.333 6.82208 14.333 6.91048V14.9105Z" fill="#909FBA"/>
</svg>
