<svg width="17" height="16" viewBox="0 0 17 16" fill="none" xmlns="http://www.w3.org/2000/svg">
<g clip-path="url(#clip0_82_5294)">
<path d="M9.26699 16.0004H9.14032C8.94314 15.9723 8.7587 15.8864 8.61036 15.7535C8.46202 15.6206 8.35645 15.4467 8.30699 15.2537L6.83366 9.33372L0.920322 7.86039C0.726153 7.81208 0.550785 7.707 0.416605 7.55857C0.282426 7.41014 0.195522 7.2251 0.166989 7.02705C0.139214 6.82824 0.177711 6.62582 0.276526 6.45109C0.375341 6.27636 0.528969 6.13904 0.713656 6.06039L14.8337 0.0737183C15.0123 0.00132424 15.2084 -0.016414 15.3971 0.0227515C15.5858 0.0619171 15.7586 0.156223 15.8937 0.293718C16.0253 0.428347 16.1145 0.598725 16.15 0.783644C16.1856 0.968564 16.166 1.15986 16.0937 1.33372L10.0937 15.4271C10.0279 15.5936 9.91425 15.7369 9.76714 15.8389C9.62002 15.9409 9.44599 15.9971 9.26699 16.0004Z" fill="#028E46"/>
</g>
<defs>
<clipPath id="clip0_82_5294">
<rect width="16" height="16" fill="white" transform="translate(0.167969)"/>
</clipPath>
</defs>
</svg>
