<svg width="14" height="14" viewBox="0 0 14 14" fill="none" xmlns="http://www.w3.org/2000/svg">
<g clip-path="url(#clip0_148_562)">
<path d="M7.0008 0.00131135C5.12704 0.0305475 3.33989 0.795272 2.02497 2.13048C1.37047 2.78489 0.85405 3.56407 0.506344 4.42181C0.158639 5.27955 -0.013275 6.19838 0.000799343 7.12381C3.07448e-05 8.02769 0.177591 8.92283 0.523311 9.75798C0.86903 10.5931 1.37612 11.3519 2.01552 11.9907C2.65493 12.6296 3.41409 13.136 4.24953 13.481C5.08497 13.826 5.98026 14.0028 6.88413 14.0013H7.0008C8.87334 13.9844 10.6625 13.2246 11.9751 11.889C13.2877 10.5535 14.0163 8.75136 14.0008 6.87881C14.0025 5.96479 13.8217 5.05963 13.469 4.21641C13.1163 3.37318 12.5988 2.60887 11.9468 1.96829C11.2948 1.32771 10.5215 0.823764 9.67218 0.485998C8.82286 0.148232 7.91464 -0.0165513 7.0008 0.00131135ZM6.1258 9.64965C6.12103 9.53237 6.14022 9.41536 6.1822 9.30575C6.22419 9.19615 6.28808 9.09625 6.36997 9.01217C6.45187 8.92809 6.55005 8.8616 6.65851 8.81674C6.76697 8.77189 6.88344 8.74963 7.0008 8.75131C7.23055 8.75264 7.45095 8.84252 7.61611 9.00224C7.78126 9.16197 7.87846 9.37923 7.88747 9.60881C7.89219 9.72433 7.8735 9.83961 7.83252 9.94772C7.79154 10.0558 7.72913 10.1545 7.64903 10.2379C7.56893 10.3213 7.47279 10.3876 7.36641 10.4329C7.26002 10.4781 7.14558 10.5014 7.02997 10.5013C6.79816 10.5046 6.57417 10.4175 6.40542 10.2586C6.23667 10.0996 6.13638 9.88124 6.1258 9.64965ZM6.41747 7.31631V3.81631C6.41747 3.6616 6.47892 3.51323 6.58832 3.40383C6.69772 3.29444 6.84609 3.23298 7.0008 3.23298C7.15551 3.23298 7.30388 3.29444 7.41328 3.40383C7.52268 3.51323 7.58413 3.6616 7.58413 3.81631V7.31631C7.58413 7.47102 7.52268 7.61939 7.41328 7.72879C7.30388 7.83819 7.15551 7.89964 7.0008 7.89964C6.84609 7.89964 6.69772 7.83819 6.58832 7.72879C6.47892 7.61939 6.41747 7.47102 6.41747 7.31631Z" fill="#E52D42"/>
</g>
<defs>
<clipPath id="clip0_148_562">
<rect width="14" height="14" fill="white"/>
</clipPath>
</defs>
</svg>
