<svg width="26" height="26" viewBox="0 0 16 16" fill="none" xmlns="http://www.w3.org/2000/svg">
<g clip-path="url(#clip0_406_756)">
<path d="M15.6202 7.01311C13.8602 5.07311 10.9535 3.01311 8.00016 3.06644C5.04682 3.11978 2.14016 5.07311 0.380156 7.01311C0.129988 7.28606 -0.00878906 7.64286 -0.00878906 8.01311C-0.00878906 8.38336 0.129988 8.74016 0.380156 9.01311C1.55349 10.2798 4.49349 12.9331 8.00016 12.9331C11.5068 12.9331 14.4402 10.2664 15.6202 8.97978C15.861 8.70885 15.9941 8.35895 15.9941 7.99644C15.9941 7.63394 15.861 7.28404 15.6202 7.01311ZM4.93349 7.99978C4.93349 7.39325 5.11335 6.80034 5.45032 6.29603C5.78729 5.79172 6.26623 5.39866 6.82659 5.16655C7.38695 4.93444 8.00356 4.87371 8.59843 4.99204C9.19331 5.11036 9.73974 5.40244 10.1686 5.83132C10.5975 6.2602 10.8896 6.80663 11.0079 7.4015C11.1262 7.99638 11.0655 8.61298 10.8334 9.17334C10.6013 9.7337 10.2082 10.2126 9.70391 10.5496C9.19959 10.8866 8.60669 11.0664 8.00016 11.0664C7.18683 11.0664 6.40681 10.7433 5.8317 10.1682C5.25658 9.59313 4.93349 8.81311 4.93349 7.99978Z" fill="#909FBA"/>
<path d="M8.00016 9.33311C8.73654 9.33311 9.33349 8.73616 9.33349 7.99978C9.33349 7.2634 8.73654 6.66644 8.00016 6.66644C7.26378 6.66644 6.66682 7.2634 6.66682 7.99978C6.66682 8.73616 7.26378 9.33311 8.00016 9.33311Z" fill="#909FBA"/>
</g>
<defs>
<clipPath id="clip0_406_756">
<rect width="26" height="26" fill="white"/>
</clipPath>
</defs>
</svg>

