<svg width="25" height="24" viewBox="0 0 25 24" fill="none" xmlns="http://www.w3.org/2000/svg">
<g clip-path="url(#clip0_130_2746)">
<path d="M4.62891 13.9441V22.1941H10.6289V16.1941C10.6289 15.7963 10.7869 15.4148 11.0682 15.1334C11.3496 14.8521 11.7311 14.6941 12.1289 14.6941H13.6289C14.0267 14.6941 14.4083 14.8521 14.6896 15.1334C14.9709 15.4148 15.1289 15.7963 15.1289 16.1941V22.1941H21.1289V13.9441M1.62891 12.4441L11.8179 2.25511C11.9572 2.11572 12.1226 2.00514 12.3047 1.9297C12.4867 1.85426 12.6818 1.81543 12.8789 1.81543C13.076 1.81543 13.2711 1.85426 13.4532 1.9297C13.6352 2.00514 13.8006 2.11572 13.9399 2.25511L24.1289 12.4441" stroke="#607099" stroke-width="2" stroke-linecap="round" stroke-linejoin="round"/>
</g>
<defs>
<clipPath id="clip0_130_2746">
<rect width="24" height="24" fill="white" transform="translate(0.875)"/>
</clipPath>
</defs>
</svg>
