<svg width="25" height="24" viewBox="0 0 25 24" fill="none" xmlns="http://www.w3.org/2000/svg">
<g clip-path="url(#clip0_130_2542)">
<path fill-rule="evenodd" clip-rule="evenodd" d="M23.7149 12.2498L20.7149 9.07984C20.7068 9.0726 20.6992 9.06476 20.6923 9.0564L16.3849 4.57984L13.1449 1.18984C13.0519 1.09611 12.9413 1.02172 12.8195 0.97095C12.6976 0.920181 12.5669 0.894043 12.4349 0.894043C12.3029 0.894043 12.1722 0.920181 12.0503 0.97095C11.9285 1.02172 11.8179 1.09611 11.7249 1.18984L1.1449 12.2398C1.01345 12.3809 0.925577 12.5569 0.891868 12.7468C0.858158 12.9366 0.880048 13.1322 0.954902 13.3098C1.03306 13.4838 1.15931 13.6317 1.31877 13.7362C1.47823 13.8408 1.66425 13.8975 1.8549 13.8998H3.5149C3.58042 13.9023 3.64258 13.9295 3.68893 13.9758C3.73529 14.0222 3.76243 14.0843 3.7649 14.1498V22.5398C3.7649 22.9271 3.91872 23.2984 4.19253 23.5722C4.46633 23.846 4.83769 23.9998 5.2249 23.9998H9.5449C9.81012 23.9998 10.0645 23.8945 10.252 23.7069C10.4395 23.5194 10.5449 23.2651 10.5449 22.9998V19.1698C10.5798 18.6884 10.7957 18.2381 11.1491 17.9094C11.5025 17.5807 11.9672 17.398 12.4499 17.398C12.9326 17.398 13.3973 17.5807 13.7507 17.9094C14.1041 18.2381 14.32 18.6884 14.3549 19.1698V22.9998C14.3549 23.2651 14.4603 23.5194 14.6478 23.7069C14.8353 23.8945 15.0897 23.9998 15.3549 23.9998H19.6849C20.0713 23.9972 20.4411 23.8426 20.7144 23.5693C20.9876 23.2961 21.1423 22.9263 21.1449 22.5398V14.1498C21.1449 14.0835 21.1712 14.0199 21.2181 13.9731C21.265 13.9262 21.3286 13.8998 21.3949 13.8998H23.0449C23.2318 13.8907 23.4124 13.8293 23.5661 13.7226C23.7199 13.6159 23.8406 13.4682 23.9146 13.2963C23.9885 13.1244 24.0128 12.9352 23.9846 12.7502C23.9563 12.5652 23.8768 12.3919 23.7549 12.2498H23.7149Z" fill="#028E46"/>
</g>
<defs>
<clipPath id="clip0_130_2542">
<rect width="24" height="24" fill="white" transform="translate(0.875)"/>
</clipPath>
</defs>
</svg>
