<svg width="25" height="24" viewBox="0 0 25 24" fill="none" xmlns="http://www.w3.org/2000/svg">
<g clip-path="url(#clip0_130_2553)">
<path d="M3.75 7.875C3.75 8.96902 4.1846 10.0182 4.95818 10.7918C5.73177 11.5654 6.78098 12 7.875 12C8.96902 12 10.0182 11.5654 10.7918 10.7918C11.5654 10.0182 12 8.96902 12 7.875C12 6.78098 11.5654 5.73177 10.7918 4.95818C10.0182 4.1846 8.96902 3.75 7.875 3.75C6.78098 3.75 5.73177 4.1846 4.95818 4.95818C4.1846 5.73177 3.75 6.78098 3.75 7.875Z" stroke="#607099" stroke-width="1.5" stroke-linecap="round" stroke-linejoin="round"/>
<path d="M1.125 20.25C1.125 18.4598 1.83616 16.7429 3.10203 15.477C4.3679 14.2112 6.08479 13.5 7.875 13.5C9.66521 13.5 11.3821 14.2112 12.648 15.477C13.9138 16.7429 14.625 18.4598 14.625 20.25" stroke="#607099" stroke-width="1.5" stroke-linecap="round" stroke-linejoin="round"/>
<path d="M14.7271 10.125C14.7271 11.0201 15.0826 11.8785 15.7156 12.5115C16.3485 13.1444 17.2069 13.5 18.102 13.5C18.9972 13.5 19.8556 13.1444 20.4885 12.5115C21.1215 11.8785 21.477 11.0201 21.477 10.125C21.477 9.22989 21.1215 8.37145 20.4885 7.73851C19.8556 7.10558 18.9972 6.75 18.102 6.75C17.2069 6.75 16.3485 7.10558 15.7156 7.73851C15.0826 8.37145 14.7271 9.22989 14.7271 10.125Z" stroke="#607099" stroke-width="1.5" stroke-linecap="round" stroke-linejoin="round"/>
<path d="M16.188 15.068C17.0231 14.7602 17.9201 14.6587 18.8029 14.7721C19.6856 14.8854 20.5279 15.2103 21.2582 15.7191C21.9884 16.2279 22.5849 16.9056 22.997 17.6944C23.409 18.4833 23.6245 19.36 23.625 20.25" stroke="#607099" stroke-width="1.5" stroke-linecap="round" stroke-linejoin="round"/>
</g>
<defs>
<clipPath id="clip0_130_2553">
<rect width="24" height="24" fill="white" transform="translate(0.375)"/>
</clipPath>
</defs>
</svg>
