<svg width="25" height="24" viewBox="0 0 25 24" fill="none" xmlns="http://www.w3.org/2000/svg">
<g clip-path="url(#clip0_130_2757)">
<path d="M18.374 14.5C17.4686 14.499 16.5752 14.7078 15.764 15.11C15.6993 15.139 15.6416 15.1818 15.595 15.2353C15.5483 15.2888 15.5139 15.3519 15.494 15.42C15.4635 15.5562 15.4849 15.6988 15.554 15.82C16.4204 17.227 16.8775 18.8476 16.874 20.5C16.8766 20.6318 16.9301 20.7575 17.0233 20.8507C17.1165 20.9439 17.2422 20.9974 17.374 21H23.874C24.0066 21 24.1338 20.9473 24.2276 20.8536C24.3214 20.7598 24.374 20.6326 24.374 20.5C24.374 18.9087 23.7419 17.3826 22.6167 16.2574C21.4915 15.1321 19.9653 14.5 18.374 14.5Z" fill="#028E46"/>
<path d="M18.3145 14C20.3855 14 22.0645 12.3211 22.0645 10.25C22.0645 8.17893 20.3855 6.5 18.3145 6.5C16.2434 6.5 14.5645 8.17893 14.5645 10.25C14.5645 12.3211 16.2434 14 18.3145 14Z" fill="#028E46"/>
<path d="M7.875 12.5C10.4984 12.5 12.625 10.3734 12.625 7.75C12.625 5.12665 10.4984 3 7.875 3C5.25165 3 3.125 5.12665 3.125 7.75C3.125 10.3734 5.25165 12.5 7.875 12.5Z" fill="#028E46"/>
<path d="M15.375 20.5C15.375 18.5109 14.5848 16.6032 13.1783 15.1967C11.7718 13.7902 9.86412 13 7.875 13C5.88588 13 3.97822 13.7902 2.5717 15.1967C1.16518 16.6032 0.375 18.5109 0.375 20.5C0.375 20.6326 0.427678 20.7598 0.521447 20.8536C0.615215 20.9473 0.742392 21 0.875 21H14.875C15.0076 21 15.1348 20.9473 15.2286 20.8536C15.3223 20.7598 15.375 20.6326 15.375 20.5Z" fill="#028E46"/>
</g>
<defs>
<clipPath id="clip0_130_2757">
<rect width="24" height="24" fill="white" transform="translate(0.375)"/>
</clipPath>
</defs>
</svg>
