<svg width="25" height="24" viewBox="0 0 25 24" fill="none" xmlns="http://www.w3.org/2000/svg">
<g clip-path="url(#clip0_130_2561)">
<path d="M0.875 12.0229C0.875 12.7191 1.15156 13.3868 1.64384 13.8791C2.13613 14.3714 2.80381 14.6479 3.5 14.6479C4.19619 14.6479 4.86387 14.3714 5.35616 13.8791C5.84844 13.3868 6.125 12.7191 6.125 12.0229C6.125 11.3268 5.84844 10.6591 5.35616 10.1668C4.86387 9.67451 4.19619 9.39795 3.5 9.39795C2.80381 9.39795 2.13613 9.67451 1.64384 10.1668C1.15156 10.6591 0.875 11.3268 0.875 12.0229Z" stroke="#607099" stroke-width="1.5" stroke-linecap="round" stroke-linejoin="round"/>
<path d="M18.125 12.0229C18.125 12.3677 18.1929 12.709 18.3248 13.0275C18.4567 13.346 18.6501 13.6354 18.8938 13.8791C19.1376 14.1229 19.427 14.3162 19.7455 14.4481C20.0639 14.5801 20.4053 14.6479 20.75 14.6479C21.0947 14.6479 21.4361 14.5801 21.7545 14.4481C22.073 14.3162 22.3624 14.1229 22.6062 13.8791C22.8499 13.6354 23.0433 13.346 23.1752 13.0275C23.3071 12.709 23.375 12.3677 23.375 12.0229C23.375 11.6782 23.3071 11.3369 23.1752 11.0184C23.0433 10.6999 22.8499 10.4105 22.6062 10.1668C22.3624 9.92304 22.073 9.72968 21.7545 9.59777C21.4361 9.46585 21.0947 9.39795 20.75 9.39795C20.4053 9.39795 20.0639 9.46585 19.7455 9.59777C19.427 9.72968 19.1376 9.92304 18.8938 10.1668C18.6501 10.4105 18.4567 10.6999 18.3248 11.0184C18.1929 11.3369 18.125 11.6782 18.125 12.0229Z" stroke="#607099" stroke-width="1.5" stroke-linecap="round" stroke-linejoin="round"/>
<path d="M9.5 12.0229C9.5 12.7191 9.77656 13.3868 10.2688 13.8791C10.7611 14.3714 11.4288 14.6479 12.125 14.6479C12.8212 14.6479 13.4889 14.3714 13.9812 13.8791C14.4734 13.3868 14.75 12.7191 14.75 12.0229C14.75 11.3268 14.4734 10.6591 13.9812 10.1668C13.4889 9.67451 12.8212 9.39795 12.125 9.39795C11.4288 9.39795 10.7611 9.67451 10.2688 10.1668C9.77656 10.6591 9.5 11.3268 9.5 12.0229Z" stroke="#607099" stroke-width="1.5" stroke-linecap="round" stroke-linejoin="round"/>
</g>
<defs>
<clipPath id="clip0_130_2561">
<rect width="24" height="24" fill="white" transform="translate(0.125)"/>
</clipPath>
</defs>
</svg>
