<svg width="25" height="24" viewBox="0 0 25 24" fill="none" xmlns="http://www.w3.org/2000/svg">
<g clip-path="url(#clip0_130_2810)">
<path d="M0.875 12.0234C0.875 12.7196 1.15156 13.3873 1.64384 13.8796C2.13613 14.3719 2.80381 14.6484 3.5 14.6484C4.19619 14.6484 4.86387 14.3719 5.35616 13.8796C5.84844 13.3873 6.125 12.7196 6.125 12.0234C6.125 11.3272 5.84844 10.6596 5.35616 10.1673C4.86387 9.675 4.19619 9.39844 3.5 9.39844C2.80381 9.39844 2.13613 9.675 1.64384 10.1673C1.15156 10.6596 0.875 11.3272 0.875 12.0234Z" fill="#028E46"/>
<path d="M18.125 12.0234C18.125 12.3682 18.1929 12.7095 18.3248 13.028C18.4567 13.3465 18.6501 13.6358 18.8938 13.8796C19.1376 14.1233 19.427 14.3167 19.7455 14.4486C20.0639 14.5805 20.4053 14.6484 20.75 14.6484C21.0947 14.6484 21.4361 14.5805 21.7545 14.4486C22.073 14.3167 22.3624 14.1233 22.6062 13.8796C22.8499 13.6358 23.0433 13.3465 23.1752 13.028C23.3071 12.7095 23.375 12.3682 23.375 12.0234C23.375 11.6787 23.3071 11.3374 23.1752 11.0189C23.0433 10.7004 22.8499 10.411 22.6062 10.1673C22.3624 9.92353 22.073 9.73017 21.7545 9.59825C21.4361 9.46634 21.0947 9.39844 20.75 9.39844C20.4053 9.39844 20.0639 9.46634 19.7455 9.59825C19.427 9.73017 19.1376 9.92353 18.8938 10.1673C18.6501 10.411 18.4567 10.7004 18.3248 11.0189C18.1929 11.3374 18.125 11.6787 18.125 12.0234Z" fill="#028E46"/>
<path d="M9.5 12.0234C9.5 12.7196 9.77656 13.3873 10.2688 13.8796C10.7611 14.3719 11.4288 14.6484 12.125 14.6484C12.8212 14.6484 13.4889 14.3719 13.9812 13.8796C14.4734 13.3873 14.75 12.7196 14.75 12.0234C14.75 11.3272 14.4734 10.6596 13.9812 10.1673C13.4889 9.675 12.8212 9.39844 12.125 9.39844C11.4288 9.39844 10.7611 9.675 10.2688 10.1673C9.77656 10.6596 9.5 11.3272 9.5 12.0234Z" fill="#028E46"/>
<path d="M0.875 12.0234C0.875 12.7196 1.15156 13.3873 1.64384 13.8796C2.13613 14.3719 2.80381 14.6484 3.5 14.6484C4.19619 14.6484 4.86387 14.3719 5.35616 13.8796C5.84844 13.3873 6.125 12.7196 6.125 12.0234C6.125 11.3272 5.84844 10.6596 5.35616 10.1673C4.86387 9.675 4.19619 9.39844 3.5 9.39844C2.80381 9.39844 2.13613 9.675 1.64384 10.1673C1.15156 10.6596 0.875 11.3272 0.875 12.0234Z" stroke="#028E46" stroke-width="1.5" stroke-linecap="round" stroke-linejoin="round"/>
<path d="M18.125 12.0234C18.125 12.3682 18.1929 12.7095 18.3248 13.028C18.4567 13.3465 18.6501 13.6358 18.8938 13.8796C19.1376 14.1233 19.427 14.3167 19.7455 14.4486C20.0639 14.5805 20.4053 14.6484 20.75 14.6484C21.0947 14.6484 21.4361 14.5805 21.7545 14.4486C22.073 14.3167 22.3624 14.1233 22.6062 13.8796C22.8499 13.6358 23.0433 13.3465 23.1752 13.028C23.3071 12.7095 23.375 12.3682 23.375 12.0234C23.375 11.6787 23.3071 11.3374 23.1752 11.0189C23.0433 10.7004 22.8499 10.411 22.6062 10.1673C22.3624 9.92353 22.073 9.73017 21.7545 9.59825C21.4361 9.46634 21.0947 9.39844 20.75 9.39844C20.4053 9.39844 20.0639 9.46634 19.7455 9.59825C19.427 9.73017 19.1376 9.92353 18.8938 10.1673C18.6501 10.411 18.4567 10.7004 18.3248 11.0189C18.1929 11.3374 18.125 11.6787 18.125 12.0234Z" stroke="#028E46" stroke-width="1.5" stroke-linecap="round" stroke-linejoin="round"/>
<path d="M9.5 12.0234C9.5 12.7196 9.77656 13.3873 10.2688 13.8796C10.7611 14.3719 11.4288 14.6484 12.125 14.6484C12.8212 14.6484 13.4889 14.3719 13.9812 13.8796C14.4734 13.3873 14.75 12.7196 14.75 12.0234C14.75 11.3272 14.4734 10.6596 13.9812 10.1673C13.4889 9.675 12.8212 9.39844 12.125 9.39844C11.4288 9.39844 10.7611 9.675 10.2688 10.1673C9.77656 10.6596 9.5 11.3272 9.5 12.0234Z" stroke="#028E46" stroke-width="1.5" stroke-linecap="round" stroke-linejoin="round"/>
</g>
<defs>
<clipPath id="clip0_130_2810">
<rect width="24" height="24" fill="white" transform="translate(0.125)"/>
</clipPath>
</defs>
</svg>
