<svg width="16" height="16" viewBox="0 0 16 16" fill="none" xmlns="http://www.w3.org/2000/svg">
<path d="M7.9987 4.33333C9.19532 4.33333 10.1654 3.36328 10.1654 2.16667C10.1654 0.97005 9.19532 0 7.9987 0C6.80208 0 5.83203 0.97005 5.83203 2.16667C5.83203 3.36328 6.80208 4.33333 7.9987 4.33333Z" fill="#0B1932"/>
<path d="M7.9987 10.1667C9.19532 10.1667 10.1654 9.19662 10.1654 8C10.1654 6.80338 9.19532 5.83333 7.9987 5.83333C6.80208 5.83333 5.83203 6.80338 5.83203 8C5.83203 9.19662 6.80208 10.1667 7.9987 10.1667Z" fill="#0B1932"/>
<path d="M7.9987 16C9.19532 16 10.1654 15.03 10.1654 13.8333C10.1654 12.6367 9.19532 11.6667 7.9987 11.6667C6.80208 11.6667 5.83203 12.6367 5.83203 13.8333C5.83203 15.03 6.80208 16 7.9987 16Z" fill="#0B1932"/>
</svg>
