<svg width="17" height="16" viewBox="0 0 17 16" fill="none" xmlns="http://www.w3.org/2000/svg">
<g clip-path="url(#clip0_82_5287)">
<path d="M15.4472 11.3333L13.8139 9.69995C13.6401 9.52257 13.4326 9.38164 13.2037 9.28544C12.9747 9.18923 12.7289 9.13968 12.4805 9.13968C12.2322 9.13968 11.9863 9.18923 11.7574 9.28544C11.5284 9.38164 11.321 9.52257 11.1472 9.69995L10.8205 10.0266C9.17529 8.65364 7.65592 7.1365 6.28053 5.49329L6.61386 5.15995C6.96723 4.80619 7.16571 4.32663 7.16571 3.82662C7.16571 3.32661 6.96723 2.84704 6.61386 2.49329L5.00053 0.879952C4.64342 0.53297 4.16511 0.338867 3.66719 0.338867C3.16927 0.338867 2.69097 0.53297 2.33386 0.879952L1.44053 1.77329C1.01237 2.20713 0.745765 2.77456 0.685113 3.38108C0.624462 3.98759 0.773425 4.59658 1.10719 5.10662C3.77134 9.11745 7.2097 12.5558 11.2205 15.22C11.7306 15.5537 12.3396 15.7027 12.9461 15.642C13.5526 15.5814 14.12 15.3148 14.5539 14.8866L15.4472 14C15.6246 13.8261 15.7655 13.6187 15.8617 13.3898C15.9579 13.1608 16.0075 12.915 16.0075 12.6666C16.0075 12.4183 15.9579 12.1724 15.8617 11.9435C15.7655 11.7145 15.6246 11.5071 15.4472 11.3333Z" fill="#028E46"/>
</g>
<defs>
<clipPath id="clip0_82_5287">
<rect width="16" height="16" fill="white" transform="translate(0.333984)"/>
</clipPath>
</defs>
</svg>
