<svg width="295" height="338" viewBox="0 0 295 338" fill="none" xmlns="http://www.w3.org/2000/svg">
<g opacity="0.05">
<path d="M293.972 163.869C277.048 134.481 254.317 111.052 229.953 97.9041C204.636 84.2562 179.908 82.9369 160.444 94.2192C121.152 116.966 118.203 183.204 153.774 245.029C169.836 272.916 191.478 295.709 214.663 309.175C229.635 317.864 244.29 322.277 258.219 322.277C268.791 322.277 278.591 319.683 287.348 314.634C307.765 302.805 319.017 279.422 318.971 248.805C318.926 221.919 310.079 191.757 293.972 163.869ZM261.713 182.521C274.553 204.859 281.676 228.379 281.676 248.851C281.676 258.495 280.043 275.692 268.7 282.243C257.403 288.794 241.704 281.651 233.356 276.829C215.706 266.593 198.919 248.669 186.079 226.331C159.673 180.474 161.215 136.983 179.092 126.61C194.518 117.648 232.857 132.433 261.713 182.521Z" fill="#028E46"/>
<path d="M239.616 10.722C214.208 -5.92856 179.544 -3.10798 141.977 18.6378C108.357 38.1089 75.2355 71.1369 48.8294 111.671C22.3779 152.16 5.45439 195.788 1.09874 234.503C-3.756 277.721 7.58684 310.704 32.9494 327.355C43.7024 334.406 56.2249 338 70.1993 338C119.246 338 179.499 294.236 223.691 226.451C250.142 185.962 267.066 142.334 271.421 103.619C276.276 60.355 264.978 27.3725 239.616 10.722ZM234.398 99.3882C230.723 132.371 215.841 170.221 192.52 205.933C169.109 241.782 140.706 270.534 112.44 286.866C88.121 300.923 66.0705 304.381 53.3211 296.01C40.7079 287.73 34.9911 266.257 38.1217 238.597C41.7968 205.615 56.6786 167.764 79.9995 132.052C103.32 96.3401 131.95 67.5429 160.624 50.9379C175.915 42.1123 190.252 37.4265 202.094 37.4265C208.854 37.4265 214.571 38.9732 219.153 41.9303C231.812 50.301 237.483 71.7283 234.398 99.3882Z" fill="#0E4924"/>
<path d="M214.642 309.175C229.615 317.864 244.27 322.277 258.199 322.277C268.77 322.277 278.57 319.683 287.327 314.634C307.744 302.805 318.996 279.422 318.951 248.805C318.905 221.919 310.058 191.757 293.997 163.869C277.073 134.481 254.342 111.052 229.978 97.9041C204.615 84.2562 179.933 82.9369 160.469 94.2192L179.116 126.61C194.588 117.648 232.881 132.433 261.738 182.567C274.578 204.904 281.701 228.424 281.701 248.896C281.701 258.541 280.068 275.737 268.725 282.288C257.382 288.839 241.729 281.697 233.38 276.829L214.642 309.175Z" fill="#028E46"/>
</g>
</svg>
