<svg width="343" height="40" viewBox="0 0 343 40" fill="none" xmlns="http://www.w3.org/2000/svg">
<rect width="343" height="40" rx="8" fill="#F0F4FB"/>
<g clip-path="url(#clip0_82_3366)">
<path d="M31.4831 28.0168L26.0415 22.5751C27.0695 21.2399 27.6262 19.6019 27.6248 17.9168C27.6285 16.1737 27.0426 14.4806 25.9624 13.1127C24.8821 11.7447 23.3709 10.7823 21.6745 10.3819C19.9781 9.98148 18.196 10.1665 16.6181 10.907C15.0401 11.6475 13.759 12.8999 12.9829 14.4606C12.2067 16.0214 11.9813 17.7987 12.3431 19.5038C12.7049 21.2089 13.6327 22.7415 14.9758 23.8526C16.3188 24.9636 17.9982 25.5878 19.7409 25.6237C21.4836 25.6595 23.1872 25.105 24.5748 24.0501L30.0165 29.4918C30.2126 29.6832 30.4758 29.7903 30.7498 29.7903C31.0238 29.7903 31.287 29.6832 31.4831 29.4918C31.5801 29.395 31.6571 29.2801 31.7096 29.1535C31.7621 29.027 31.7892 28.8913 31.7892 28.7543C31.7892 28.6173 31.7621 28.4816 31.7096 28.355C31.6571 28.2285 31.5801 28.1135 31.4831 28.0168ZM14.2915 17.9168C14.2915 16.8043 14.6214 15.7167 15.2394 14.7917C15.8575 13.8667 16.736 13.1457 17.7639 12.72C18.7917 12.2942 19.9227 12.1828 21.0138 12.3999C22.105 12.6169 23.1073 13.1526 23.8939 13.9393C24.6806 14.726 25.2163 15.7283 25.4334 16.8194C25.6504 17.9105 25.539 19.0415 25.1133 20.0694C24.6875 21.0972 23.9666 21.9757 23.0415 22.5938C22.1165 23.2119 21.029 23.5418 19.9165 23.5418C18.4253 23.5396 16.9958 22.9462 15.9414 21.8918C14.887 20.8374 14.2937 19.4079 14.2915 17.9168Z" fill="#607099"/>
</g>
<path d="M43.576 24.084C43.024 24.084 42.528 23.988 42.088 23.796C41.656 23.596 41.316 23.324 41.068 22.98C40.82 22.628 40.692 22.224 40.684 21.768H41.848C41.888 22.16 42.048 22.492 42.328 22.764C42.616 23.028 43.032 23.16 43.576 23.16C44.096 23.16 44.504 23.032 44.8 22.776C45.104 22.512 45.256 22.176 45.256 21.768C45.256 21.448 45.168 21.188 44.992 20.988C44.816 20.788 44.596 20.636 44.332 20.532C44.068 20.428 43.712 20.316 43.264 20.196C42.712 20.052 42.268 19.908 41.932 19.764C41.604 19.62 41.32 19.396 41.08 19.092C40.848 18.78 40.732 18.364 40.732 17.844C40.732 17.388 40.848 16.984 41.08 16.632C41.312 16.28 41.636 16.008 42.052 15.816C42.476 15.624 42.96 15.528 43.504 15.528C44.288 15.528 44.928 15.724 45.424 16.116C45.928 16.508 46.212 17.028 46.276 17.676H45.076C45.036 17.356 44.868 17.076 44.572 16.836C44.276 16.588 43.884 16.464 43.396 16.464C42.94 16.464 42.568 16.584 42.28 16.824C41.992 17.056 41.848 17.384 41.848 17.808C41.848 18.112 41.932 18.36 42.1 18.552C42.276 18.744 42.488 18.892 42.736 18.996C42.992 19.092 43.348 19.204 43.804 19.332C44.356 19.484 44.8 19.636 45.136 19.788C45.472 19.932 45.76 20.16 46 20.472C46.24 20.776 46.36 21.192 46.36 21.72C46.36 22.128 46.252 22.512 46.036 22.872C45.82 23.232 45.5 23.524 45.076 23.748C44.652 23.972 44.152 24.084 43.576 24.084ZM53.967 20.46C53.967 20.668 53.955 20.888 53.931 21.12H48.675C48.715 21.768 48.935 22.276 49.335 22.644C49.743 23.004 50.235 23.184 50.811 23.184C51.283 23.184 51.675 23.076 51.987 22.86C52.307 22.636 52.531 22.34 52.659 21.972H53.835C53.659 22.604 53.307 23.12 52.779 23.52C52.251 23.912 51.595 24.108 50.811 24.108C50.187 24.108 49.627 23.968 49.131 23.688C48.643 23.408 48.259 23.012 47.979 22.5C47.699 21.98 47.559 21.38 47.559 20.7C47.559 20.02 47.695 19.424 47.967 18.912C48.239 18.4 48.619 18.008 49.107 17.736C49.603 17.456 50.171 17.316 50.811 17.316C51.435 17.316 51.987 17.452 52.467 17.724C52.947 17.996 53.315 18.372 53.571 18.852C53.835 19.324 53.967 19.86 53.967 20.46ZM52.839 20.232C52.839 19.816 52.747 19.46 52.563 19.164C52.379 18.86 52.127 18.632 51.807 18.48C51.495 18.32 51.147 18.24 50.763 18.24C50.211 18.24 49.739 18.416 49.347 18.768C48.963 19.12 48.743 19.608 48.687 20.232H52.839ZM55.0004 20.688C55.0004 20.016 55.1364 19.428 55.4084 18.924C55.6804 18.412 56.0524 18.016 56.5244 17.736C57.0044 17.456 57.5364 17.316 58.1204 17.316C58.6964 17.316 59.1964 17.44 59.6204 17.688C60.0444 17.936 60.3604 18.248 60.5684 18.624V17.424H61.6724V24H60.5684V22.776C60.3524 23.16 60.0284 23.48 59.5964 23.736C59.1724 23.984 58.6764 24.108 58.1084 24.108C57.5244 24.108 56.9964 23.964 56.5244 23.676C56.0524 23.388 55.6804 22.984 55.4084 22.464C55.1364 21.944 55.0004 21.352 55.0004 20.688ZM60.5684 20.7C60.5684 20.204 60.4684 19.772 60.2684 19.404C60.0684 19.036 59.7964 18.756 59.4524 18.564C59.1164 18.364 58.7444 18.264 58.3364 18.264C57.9284 18.264 57.5564 18.36 57.2204 18.552C56.8844 18.744 56.6164 19.024 56.4164 19.392C56.2164 19.76 56.1164 20.192 56.1164 20.688C56.1164 21.192 56.2164 21.632 56.4164 22.008C56.6164 22.376 56.8844 22.66 57.2204 22.86C57.5564 23.052 57.9284 23.148 58.3364 23.148C58.7444 23.148 59.1164 23.052 59.4524 22.86C59.7964 22.66 60.0684 22.376 60.2684 22.008C60.4684 21.632 60.5684 21.196 60.5684 20.7ZM64.6098 18.492C64.8018 18.116 65.0738 17.824 65.4258 17.616C65.7858 17.408 66.2218 17.304 66.7338 17.304V18.432H66.4458C65.2218 18.432 64.6098 19.096 64.6098 20.424V24H63.5178V17.424H64.6098V18.492ZM67.5863 20.7C67.5863 20.02 67.7223 19.428 67.9943 18.924C68.2663 18.412 68.6423 18.016 69.1223 17.736C69.6103 17.456 70.1663 17.316 70.7903 17.316C71.5983 17.316 72.2623 17.512 72.7823 17.904C73.3103 18.296 73.6583 18.84 73.8263 19.536H72.6503C72.5383 19.136 72.3183 18.82 71.9903 18.588C71.6703 18.356 71.2703 18.24 70.7903 18.24C70.1663 18.24 69.6623 18.456 69.2783 18.888C68.8943 19.312 68.7023 19.916 68.7023 20.7C68.7023 21.492 68.8943 22.104 69.2783 22.536C69.6623 22.968 70.1663 23.184 70.7903 23.184C71.2703 23.184 71.6703 23.072 71.9903 22.848C72.3103 22.624 72.5303 22.304 72.6503 21.888H73.8263C73.6503 22.56 73.2983 23.1 72.7703 23.508C72.2423 23.908 71.5823 24.108 70.7903 24.108C70.1663 24.108 69.6103 23.968 69.1223 23.688C68.6423 23.408 68.2663 23.012 67.9943 22.5C67.7223 21.988 67.5863 21.388 67.5863 20.7ZM78.5474 17.304C79.0434 17.304 79.4914 17.412 79.8914 17.628C80.2914 17.836 80.6034 18.152 80.8274 18.576C81.0594 19 81.1754 19.516 81.1754 20.124V24H80.0954V20.28C80.0954 19.624 79.9314 19.124 79.6034 18.78C79.2754 18.428 78.8274 18.252 78.2594 18.252C77.6834 18.252 77.2234 18.432 76.8794 18.792C76.5434 19.152 76.3754 19.676 76.3754 20.364V24H75.2834V15.12H76.3754V18.36C76.5914 18.024 76.8874 17.764 77.2634 17.58C77.6474 17.396 78.0754 17.304 78.5474 17.304ZM89.3624 17.304C90.1624 17.304 90.8104 17.548 91.3064 18.036C91.8024 18.516 92.0504 19.212 92.0504 20.124V24H90.9704V20.28C90.9704 19.624 90.8064 19.124 90.4784 18.78C90.1504 18.428 89.7024 18.252 89.1344 18.252C88.5584 18.252 88.0984 18.432 87.7544 18.792C87.4184 19.152 87.2504 19.676 87.2504 20.364V24H86.1584V17.424H87.2504V18.36C87.4664 18.024 87.7584 17.764 88.1264 17.58C88.5024 17.396 88.9144 17.304 89.3624 17.304ZM93.4262 20.688C93.4262 20.016 93.5622 19.428 93.8342 18.924C94.1062 18.412 94.4782 18.016 94.9502 17.736C95.4302 17.456 95.9622 17.316 96.5462 17.316C97.1222 17.316 97.6222 17.44 98.0462 17.688C98.4702 17.936 98.7862 18.248 98.9942 18.624V17.424H100.098V24H98.9942V22.776C98.7782 23.16 98.4542 23.48 98.0222 23.736C97.5982 23.984 97.1022 24.108 96.5342 24.108C95.9502 24.108 95.4222 23.964 94.9502 23.676C94.4782 23.388 94.1062 22.984 93.8342 22.464C93.5622 21.944 93.4262 21.352 93.4262 20.688ZM98.9942 20.7C98.9942 20.204 98.8942 19.772 98.6942 19.404C98.4942 19.036 98.2222 18.756 97.8782 18.564C97.5422 18.364 97.1702 18.264 96.7622 18.264C96.3542 18.264 95.9822 18.36 95.6462 18.552C95.3102 18.744 95.0422 19.024 94.8422 19.392C94.6422 19.76 94.5422 20.192 94.5422 20.688C94.5422 21.192 94.6422 21.632 94.8422 22.008C95.0422 22.376 95.3102 22.66 95.6462 22.86C95.9822 23.052 96.3542 23.148 96.7622 23.148C97.1702 23.148 97.5422 23.052 97.8782 22.86C98.2222 22.66 98.4942 22.376 98.6942 22.008C98.8942 21.632 98.9942 21.196 98.9942 20.7ZM109.852 17.304C110.364 17.304 110.82 17.412 111.22 17.628C111.62 17.836 111.936 18.152 112.168 18.576C112.4 19 112.516 19.516 112.516 20.124V24H111.436V20.28C111.436 19.624 111.272 19.124 110.944 18.78C110.624 18.428 110.188 18.252 109.636 18.252C109.068 18.252 108.616 18.436 108.28 18.804C107.944 19.164 107.776 19.688 107.776 20.376V24H106.696V20.28C106.696 19.624 106.532 19.124 106.204 18.78C105.884 18.428 105.448 18.252 104.896 18.252C104.328 18.252 103.876 18.436 103.54 18.804C103.204 19.164 103.036 19.688 103.036 20.376V24H101.944V17.424H103.036V18.372C103.252 18.028 103.54 17.764 103.9 17.58C104.268 17.396 104.672 17.304 105.112 17.304C105.664 17.304 106.152 17.428 106.576 17.676C107 17.924 107.316 18.288 107.524 18.768C107.708 18.304 108.012 17.944 108.436 17.688C108.86 17.432 109.332 17.304 109.852 17.304ZM120.307 20.46C120.307 20.668 120.295 20.888 120.271 21.12H115.015C115.055 21.768 115.275 22.276 115.675 22.644C116.083 23.004 116.575 23.184 117.151 23.184C117.623 23.184 118.015 23.076 118.327 22.86C118.647 22.636 118.871 22.34 118.999 21.972H120.175C119.999 22.604 119.647 23.12 119.119 23.52C118.591 23.912 117.935 24.108 117.151 24.108C116.527 24.108 115.967 23.968 115.471 23.688C114.983 23.408 114.599 23.012 114.319 22.5C114.039 21.98 113.899 21.38 113.899 20.7C113.899 20.02 114.035 19.424 114.307 18.912C114.579 18.4 114.959 18.008 115.447 17.736C115.943 17.456 116.511 17.316 117.151 17.316C117.775 17.316 118.327 17.452 118.807 17.724C119.287 17.996 119.655 18.372 119.911 18.852C120.175 19.324 120.307 19.86 120.307 20.46ZM119.179 20.232C119.179 19.816 119.087 19.46 118.903 19.164C118.719 18.86 118.467 18.632 118.147 18.48C117.835 18.32 117.487 18.24 117.103 18.24C116.551 18.24 116.079 18.416 115.687 18.768C115.303 19.12 115.083 19.608 115.027 20.232H119.179ZM122.876 22.488L121.532 25.716H120.8L121.676 22.488H122.876ZM126.918 20.7C126.918 20.02 127.054 19.428 127.326 18.924C127.598 18.412 127.974 18.016 128.454 17.736C128.942 17.456 129.498 17.316 130.122 17.316C130.93 17.316 131.594 17.512 132.114 17.904C132.642 18.296 132.99 18.84 133.158 19.536H131.982C131.87 19.136 131.65 18.82 131.322 18.588C131.002 18.356 130.602 18.24 130.122 18.24C129.498 18.24 128.994 18.456 128.61 18.888C128.226 19.312 128.034 19.916 128.034 20.7C128.034 21.492 128.226 22.104 128.61 22.536C128.994 22.968 129.498 23.184 130.122 23.184C130.602 23.184 131.002 23.072 131.322 22.848C131.642 22.624 131.862 22.304 131.982 21.888H133.158C132.982 22.56 132.63 23.1 132.102 23.508C131.574 23.908 130.914 24.108 130.122 24.108C129.498 24.108 128.942 23.968 128.454 23.688C127.974 23.408 127.598 23.012 127.326 22.5C127.054 21.988 126.918 21.388 126.918 20.7ZM137.483 24.108C136.867 24.108 136.307 23.968 135.803 23.688C135.307 23.408 134.915 23.012 134.627 22.5C134.347 21.98 134.207 21.38 134.207 20.7C134.207 20.028 134.351 19.436 134.639 18.924C134.935 18.404 135.335 18.008 135.839 17.736C136.343 17.456 136.907 17.316 137.531 17.316C138.155 17.316 138.719 17.456 139.223 17.736C139.727 18.008 140.123 18.4 140.411 18.912C140.707 19.424 140.855 20.02 140.855 20.7C140.855 21.38 140.703 21.98 140.399 22.5C140.103 23.012 139.699 23.408 139.187 23.688C138.675 23.968 138.107 24.108 137.483 24.108ZM137.483 23.148C137.875 23.148 138.243 23.056 138.587 22.872C138.931 22.688 139.207 22.412 139.415 22.044C139.631 21.676 139.739 21.228 139.739 20.7C139.739 20.172 139.635 19.724 139.427 19.356C139.219 18.988 138.947 18.716 138.611 18.54C138.275 18.356 137.911 18.264 137.519 18.264C137.119 18.264 136.751 18.356 136.415 18.54C136.087 18.716 135.823 18.988 135.623 19.356C135.423 19.724 135.323 20.172 135.323 20.7C135.323 21.236 135.419 21.688 135.611 22.056C135.811 22.424 136.075 22.7 136.403 22.884C136.731 23.06 137.091 23.148 137.483 23.148ZM150.199 17.304C150.711 17.304 151.167 17.412 151.567 17.628C151.967 17.836 152.283 18.152 152.515 18.576C152.747 19 152.863 19.516 152.863 20.124V24H151.783V20.28C151.783 19.624 151.619 19.124 151.291 18.78C150.971 18.428 150.535 18.252 149.983 18.252C149.415 18.252 148.963 18.436 148.627 18.804C148.291 19.164 148.123 19.688 148.123 20.376V24H147.043V20.28C147.043 19.624 146.879 19.124 146.551 18.78C146.231 18.428 145.795 18.252 145.243 18.252C144.675 18.252 144.223 18.436 143.887 18.804C143.551 19.164 143.383 19.688 143.383 20.376V24H142.291V17.424H143.383V18.372C143.599 18.028 143.887 17.764 144.247 17.58C144.615 17.396 145.019 17.304 145.459 17.304C146.011 17.304 146.499 17.428 146.923 17.676C147.347 17.924 147.663 18.288 147.871 18.768C148.055 18.304 148.359 17.944 148.783 17.688C149.207 17.432 149.679 17.304 150.199 17.304ZM155.746 18.636C155.962 18.26 156.282 17.948 156.706 17.7C157.138 17.444 157.638 17.316 158.206 17.316C158.79 17.316 159.318 17.456 159.79 17.736C160.27 18.016 160.646 18.412 160.918 18.924C161.19 19.428 161.326 20.016 161.326 20.688C161.326 21.352 161.19 21.944 160.918 22.464C160.646 22.984 160.27 23.388 159.79 23.676C159.318 23.964 158.79 24.108 158.206 24.108C157.646 24.108 157.15 23.984 156.718 23.736C156.294 23.48 155.97 23.164 155.746 22.788V27.12H154.654V17.424H155.746V18.636ZM160.21 20.688C160.21 20.192 160.11 19.76 159.91 19.392C159.71 19.024 159.438 18.744 159.094 18.552C158.758 18.36 158.386 18.264 157.978 18.264C157.578 18.264 157.206 18.364 156.862 18.564C156.526 18.756 156.254 19.04 156.046 19.416C155.846 19.784 155.746 20.212 155.746 20.7C155.746 21.196 155.846 21.632 156.046 22.008C156.254 22.376 156.526 22.66 156.862 22.86C157.206 23.052 157.578 23.148 157.978 23.148C158.386 23.148 158.758 23.052 159.094 22.86C159.438 22.66 159.71 22.376 159.91 22.008C160.11 21.632 160.21 21.192 160.21 20.688ZM162.356 20.688C162.356 20.016 162.492 19.428 162.764 18.924C163.036 18.412 163.408 18.016 163.88 17.736C164.36 17.456 164.892 17.316 165.476 17.316C166.052 17.316 166.552 17.44 166.976 17.688C167.4 17.936 167.716 18.248 167.924 18.624V17.424H169.028V24H167.924V22.776C167.708 23.16 167.384 23.48 166.952 23.736C166.528 23.984 166.032 24.108 165.464 24.108C164.88 24.108 164.352 23.964 163.88 23.676C163.408 23.388 163.036 22.984 162.764 22.464C162.492 21.944 162.356 21.352 162.356 20.688ZM167.924 20.7C167.924 20.204 167.824 19.772 167.624 19.404C167.424 19.036 167.152 18.756 166.808 18.564C166.472 18.364 166.1 18.264 165.692 18.264C165.284 18.264 164.912 18.36 164.576 18.552C164.24 18.744 163.972 19.024 163.772 19.392C163.572 19.76 163.472 20.192 163.472 20.688C163.472 21.192 163.572 21.632 163.772 22.008C163.972 22.376 164.24 22.66 164.576 22.86C164.912 23.052 165.284 23.148 165.692 23.148C166.1 23.148 166.472 23.052 166.808 22.86C167.152 22.66 167.424 22.376 167.624 22.008C167.824 21.632 167.924 21.196 167.924 20.7ZM174.077 17.304C174.877 17.304 175.525 17.548 176.021 18.036C176.517 18.516 176.765 19.212 176.765 20.124V24H175.685V20.28C175.685 19.624 175.521 19.124 175.193 18.78C174.865 18.428 174.417 18.252 173.849 18.252C173.273 18.252 172.813 18.432 172.469 18.792C172.133 19.152 171.965 19.676 171.965 20.364V24H170.873V17.424H171.965V18.36C172.181 18.024 172.473 17.764 172.841 17.58C173.217 17.396 173.629 17.304 174.077 17.304ZM184.213 17.424L180.253 27.096H179.125L180.421 23.928L177.769 17.424H178.981L181.045 22.752L183.085 17.424H184.213ZM186.439 22.488L185.095 25.716H184.363L185.239 22.488H186.439ZM198.797 17.304C199.309 17.304 199.765 17.412 200.165 17.628C200.565 17.836 200.881 18.152 201.113 18.576C201.345 19 201.461 19.516 201.461 20.124V24H200.381V20.28C200.381 19.624 200.217 19.124 199.889 18.78C199.569 18.428 199.133 18.252 198.581 18.252C198.013 18.252 197.561 18.436 197.225 18.804C196.889 19.164 196.721 19.688 196.721 20.376V24H195.641V20.28C195.641 19.624 195.477 19.124 195.149 18.78C194.829 18.428 194.393 18.252 193.841 18.252C193.273 18.252 192.821 18.436 192.485 18.804C192.149 19.164 191.981 19.688 191.981 20.376V24H190.889V17.424H191.981V18.372C192.197 18.028 192.485 17.764 192.845 17.58C193.213 17.396 193.617 17.304 194.057 17.304C194.609 17.304 195.097 17.428 195.521 17.676C195.945 17.924 196.261 18.288 196.469 18.768C196.653 18.304 196.957 17.944 197.381 17.688C197.805 17.432 198.277 17.304 198.797 17.304ZM206.12 24.108C205.504 24.108 204.944 23.968 204.44 23.688C203.944 23.408 203.552 23.012 203.264 22.5C202.984 21.98 202.844 21.38 202.844 20.7C202.844 20.028 202.988 19.436 203.276 18.924C203.572 18.404 203.972 18.008 204.476 17.736C204.98 17.456 205.544 17.316 206.168 17.316C206.792 17.316 207.356 17.456 207.86 17.736C208.364 18.008 208.76 18.4 209.048 18.912C209.344 19.424 209.492 20.02 209.492 20.7C209.492 21.38 209.34 21.98 209.036 22.5C208.74 23.012 208.336 23.408 207.824 23.688C207.312 23.968 206.744 24.108 206.12 24.108ZM206.12 23.148C206.512 23.148 206.88 23.056 207.224 22.872C207.568 22.688 207.844 22.412 208.052 22.044C208.268 21.676 208.376 21.228 208.376 20.7C208.376 20.172 208.272 19.724 208.064 19.356C207.856 18.988 207.584 18.716 207.248 18.54C206.912 18.356 206.548 18.264 206.156 18.264C205.756 18.264 205.388 18.356 205.052 18.54C204.724 18.716 204.46 18.988 204.26 19.356C204.06 19.724 203.96 20.172 203.96 20.7C203.96 21.236 204.056 21.688 204.248 22.056C204.448 22.424 204.712 22.7 205.04 22.884C205.368 23.06 205.728 23.148 206.12 23.148ZM212.02 18.648C212.244 18.256 212.572 17.936 213.004 17.688C213.436 17.44 213.928 17.316 214.48 17.316C215.072 17.316 215.604 17.456 216.076 17.736C216.548 18.016 216.92 18.412 217.192 18.924C217.464 19.428 217.6 20.016 217.6 20.688C217.6 21.352 217.464 21.944 217.192 22.464C216.92 22.984 216.544 23.388 216.064 23.676C215.592 23.964 215.064 24.108 214.48 24.108C213.912 24.108 213.412 23.984 212.98 23.736C212.556 23.488 212.236 23.172 212.02 22.788V24H210.928V15.12H212.02V18.648ZM216.484 20.688C216.484 20.192 216.384 19.76 216.184 19.392C215.984 19.024 215.712 18.744 215.368 18.552C215.032 18.36 214.66 18.264 214.252 18.264C213.852 18.264 213.48 18.364 213.136 18.564C212.8 18.756 212.528 19.04 212.32 19.416C212.12 19.784 212.02 20.212 212.02 20.7C212.02 21.196 212.12 21.632 212.32 22.008C212.528 22.376 212.8 22.66 213.136 22.86C213.48 23.052 213.852 23.148 214.252 23.148C214.66 23.148 215.032 23.052 215.368 22.86C215.712 22.66 215.984 22.376 216.184 22.008C216.384 21.632 216.484 21.192 216.484 20.688ZM219.601 16.356C219.393 16.356 219.217 16.284 219.073 16.14C218.929 15.996 218.857 15.82 218.857 15.612C218.857 15.404 218.929 15.228 219.073 15.084C219.217 14.94 219.393 14.868 219.601 14.868C219.801 14.868 219.969 14.94 220.105 15.084C220.249 15.228 220.321 15.404 220.321 15.612C220.321 15.82 220.249 15.996 220.105 16.14C219.969 16.284 219.801 16.356 219.601 16.356ZM220.129 17.424V24H219.037V17.424H220.129ZM223.082 15.12V24H221.99V15.12H223.082ZM230.944 20.46C230.944 20.668 230.932 20.888 230.908 21.12H225.652C225.692 21.768 225.912 22.276 226.312 22.644C226.72 23.004 227.212 23.184 227.788 23.184C228.26 23.184 228.652 23.076 228.964 22.86C229.284 22.636 229.508 22.34 229.636 21.972H230.812C230.636 22.604 230.284 23.12 229.756 23.52C229.228 23.912 228.572 24.108 227.788 24.108C227.164 24.108 226.604 23.968 226.108 23.688C225.62 23.408 225.236 23.012 224.956 22.5C224.676 21.98 224.536 21.38 224.536 20.7C224.536 20.02 224.672 19.424 224.944 18.912C225.216 18.4 225.596 18.008 226.084 17.736C226.58 17.456 227.148 17.316 227.788 17.316C228.412 17.316 228.964 17.452 229.444 17.724C229.924 17.996 230.292 18.372 230.548 18.852C230.812 19.324 230.944 19.86 230.944 20.46ZM229.816 20.232C229.816 19.816 229.724 19.46 229.54 19.164C229.356 18.86 229.104 18.632 228.784 18.48C228.472 18.32 228.124 18.24 227.74 18.24C227.188 18.24 226.716 18.416 226.324 18.768C225.94 19.12 225.72 19.608 225.664 20.232H229.816ZM238.788 17.304C239.588 17.304 240.236 17.548 240.732 18.036C241.228 18.516 241.476 19.212 241.476 20.124V24H240.396V20.28C240.396 19.624 240.232 19.124 239.904 18.78C239.576 18.428 239.128 18.252 238.56 18.252C237.984 18.252 237.524 18.432 237.18 18.792C236.844 19.152 236.676 19.676 236.676 20.364V24H235.584V17.424H236.676V18.36C236.892 18.024 237.184 17.764 237.552 17.58C237.928 17.396 238.34 17.304 238.788 17.304ZM249.092 17.424V24H248V23.028C247.792 23.364 247.5 23.628 247.124 23.82C246.756 24.004 246.348 24.096 245.9 24.096C245.388 24.096 244.928 23.992 244.52 23.784C244.112 23.568 243.788 23.248 243.548 22.824C243.316 22.4 243.2 21.884 243.2 21.276V17.424H244.28V21.132C244.28 21.78 244.444 22.28 244.772 22.632C245.1 22.976 245.548 23.148 246.116 23.148C246.7 23.148 247.16 22.968 247.496 22.608C247.832 22.248 248 21.724 248 21.036V17.424H249.092ZM258.844 17.304C259.356 17.304 259.812 17.412 260.212 17.628C260.612 17.836 260.928 18.152 261.16 18.576C261.392 19 261.508 19.516 261.508 20.124V24H260.428V20.28C260.428 19.624 260.264 19.124 259.936 18.78C259.616 18.428 259.18 18.252 258.628 18.252C258.06 18.252 257.608 18.436 257.272 18.804C256.936 19.164 256.768 19.688 256.768 20.376V24H255.688V20.28C255.688 19.624 255.524 19.124 255.196 18.78C254.876 18.428 254.44 18.252 253.888 18.252C253.32 18.252 252.868 18.436 252.532 18.804C252.196 19.164 252.028 19.688 252.028 20.376V24H250.936V17.424H252.028V18.372C252.244 18.028 252.532 17.764 252.892 17.58C253.26 17.396 253.664 17.304 254.104 17.304C254.656 17.304 255.144 17.428 255.568 17.676C255.992 17.924 256.308 18.288 256.516 18.768C256.7 18.304 257.004 17.944 257.428 17.688C257.852 17.432 258.324 17.304 258.844 17.304ZM264.391 18.648C264.615 18.256 264.943 17.936 265.375 17.688C265.807 17.44 266.299 17.316 266.851 17.316C267.443 17.316 267.975 17.456 268.447 17.736C268.919 18.016 269.291 18.412 269.563 18.924C269.835 19.428 269.971 20.016 269.971 20.688C269.971 21.352 269.835 21.944 269.563 22.464C269.291 22.984 268.915 23.388 268.435 23.676C267.963 23.964 267.435 24.108 266.851 24.108C266.283 24.108 265.783 23.984 265.351 23.736C264.927 23.488 264.607 23.172 264.391 22.788V24H263.299V15.12H264.391V18.648ZM268.855 20.688C268.855 20.192 268.755 19.76 268.555 19.392C268.355 19.024 268.083 18.744 267.739 18.552C267.403 18.36 267.031 18.264 266.623 18.264C266.223 18.264 265.851 18.364 265.507 18.564C265.171 18.756 264.899 19.04 264.691 19.416C264.491 19.784 264.391 20.212 264.391 20.7C264.391 21.196 264.491 21.632 264.691 22.008C264.899 22.376 265.171 22.66 265.507 22.86C265.851 23.052 266.223 23.148 266.623 23.148C267.031 23.148 267.403 23.052 267.739 22.86C268.083 22.66 268.355 22.376 268.555 22.008C268.755 21.632 268.855 21.192 268.855 20.688ZM277.408 20.46C277.408 20.668 277.396 20.888 277.372 21.12H272.116C272.156 21.768 272.376 22.276 272.776 22.644C273.184 23.004 273.676 23.184 274.252 23.184C274.724 23.184 275.116 23.076 275.428 22.86C275.748 22.636 275.972 22.34 276.1 21.972H277.276C277.1 22.604 276.748 23.12 276.22 23.52C275.692 23.912 275.036 24.108 274.252 24.108C273.628 24.108 273.068 23.968 272.572 23.688C272.084 23.408 271.7 23.012 271.42 22.5C271.14 21.98 271 21.38 271 20.7C271 20.02 271.136 19.424 271.408 18.912C271.68 18.4 272.06 18.008 272.548 17.736C273.044 17.456 273.612 17.316 274.252 17.316C274.876 17.316 275.428 17.452 275.908 17.724C276.388 17.996 276.756 18.372 277.012 18.852C277.276 19.324 277.408 19.86 277.408 20.46ZM276.28 20.232C276.28 19.816 276.188 19.46 276.004 19.164C275.82 18.86 275.568 18.632 275.248 18.48C274.936 18.32 274.588 18.24 274.204 18.24C273.652 18.24 273.18 18.416 272.788 18.768C272.404 19.12 272.184 19.608 272.128 20.232H276.28ZM279.942 18.492C280.134 18.116 280.406 17.824 280.758 17.616C281.118 17.408 281.554 17.304 282.066 17.304V18.432H281.778C280.554 18.432 279.942 19.096 279.942 20.424V24H278.85V17.424H279.942V18.492ZM286.874 24.072C286.666 24.072 286.49 24 286.346 23.856C286.202 23.712 286.13 23.536 286.13 23.328C286.13 23.12 286.202 22.944 286.346 22.8C286.49 22.656 286.666 22.584 286.874 22.584C287.074 22.584 287.242 22.656 287.378 22.8C287.522 22.944 287.594 23.12 287.594 23.328C287.594 23.536 287.522 23.712 287.378 23.856C287.242 24 287.074 24.072 286.874 24.072ZM289.393 24.072C289.185 24.072 289.009 24 288.865 23.856C288.721 23.712 288.649 23.536 288.649 23.328C288.649 23.12 288.721 22.944 288.865 22.8C289.009 22.656 289.185 22.584 289.393 22.584C289.593 22.584 289.761 22.656 289.897 22.8C290.041 22.944 290.113 23.12 290.113 23.328C290.113 23.536 290.041 23.712 289.897 23.856C289.761 24 289.593 24.072 289.393 24.072ZM291.913 24.072C291.705 24.072 291.529 24 291.385 23.856C291.241 23.712 291.169 23.536 291.169 23.328C291.169 23.12 291.241 22.944 291.385 22.8C291.529 22.656 291.705 22.584 291.913 22.584C292.113 22.584 292.281 22.656 292.417 22.8C292.561 22.944 292.633 23.12 292.633 23.328C292.633 23.536 292.561 23.712 292.417 23.856C292.281 24 292.113 24.072 291.913 24.072Z" fill="#3B3945"/>
<defs>
<clipPath id="clip0_82_3366">
<rect width="20" height="20" fill="white" transform="translate(12 10)"/>
</clipPath>
</defs>
</svg>
