<svg width="20" height="20" viewBox="0 0 20 20" fill="none" xmlns="http://www.w3.org/2000/svg">
<path d="M19.4831 18.0168L14.0415 12.5751C15.0695 11.2399 15.6262 9.60185 15.6248 7.91678C15.6285 6.17372 15.0426 4.48064 13.9624 3.11269C12.8821 1.74475 11.3709 0.782349 9.67449 0.381913C7.97805 -0.0185237 6.19605 0.166539 4.61809 0.907023C3.04014 1.64751 1.75899 2.89989 0.982862 4.46062C0.206736 6.02135 -0.0187444 7.7987 0.343066 9.50379C0.704877 11.2089 1.63271 12.7415 2.97577 13.8526C4.31883 14.9636 5.99818 15.5878 7.74087 15.6237C9.48356 15.6595 11.1872 15.105 12.5748 14.0501L18.0165 19.4918C18.2126 19.6832 18.4758 19.7903 18.7498 19.7903C19.0238 19.7903 19.287 19.6832 19.4831 19.4918C19.5801 19.395 19.6571 19.2801 19.7096 19.1535C19.7621 19.027 19.7892 18.8913 19.7892 18.7543C19.7892 18.6173 19.7621 18.4816 19.7096 18.355C19.6571 18.2285 19.5801 18.1135 19.4831 18.0168ZM2.29146 7.91678C2.29146 6.80426 2.62136 5.71672 3.23945 4.79169C3.85753 3.86667 4.73603 3.1457 5.76387 2.71995C6.7917 2.29421 7.9227 2.18282 9.01385 2.39986C10.105 2.6169 11.1073 3.15263 11.8939 3.9393C12.6806 4.72597 13.2163 5.72825 13.4334 6.81939C13.6504 7.91054 13.539 9.04154 13.1133 10.0694C12.6875 11.0972 11.9666 11.9757 11.0415 12.5938C10.1165 13.2119 9.02898 13.5418 7.91646 13.5418C6.4253 13.5396 4.99584 12.9462 3.94142 11.8918C2.88701 10.8374 2.29367 9.40794 2.29146 7.91678Z" fill="#607099"/>
</svg>
