<svg width="20" height="20" viewBox="0 0 20 20" fill="none" xmlns="http://www.w3.org/2000/svg">
<g clip-path="url(#clip0_82_5251)">
<path d="M19.375 5.80328e-07H12.7083C12.5842 -0.000169671 12.4629 0.0371238 12.3603 0.107004C12.2577 0.176883 12.1786 0.276096 12.1333 0.391667C12.086 0.504693 12.0734 0.629267 12.0971 0.749491C12.1209 0.869716 12.1799 0.980138 12.2667 1.06667L15 3.75833L7.125 11.5083C6.96979 11.6645 6.88267 11.8757 6.88267 12.0958C6.88267 12.316 6.96979 12.5272 7.125 12.6833C7.20218 12.7621 7.29422 12.8247 7.39578 12.8676C7.49734 12.9105 7.60641 12.9329 7.71667 12.9333C7.93411 12.9346 8.14344 12.8509 8.3 12.7L16.2 4.925L18.9417 7.625C18.9994 7.68343 19.0682 7.72974 19.144 7.76122C19.2198 7.7927 19.3012 7.80872 19.3833 7.80833C19.4665 7.80859 19.5488 7.79157 19.625 7.75833C19.7375 7.71044 19.8331 7.63022 19.8999 7.52784C19.9667 7.42546 20.0015 7.30555 20 7.18333V0.625001C19.9978 0.459911 19.9313 0.302191 19.8146 0.185446C19.6978 0.0686999 19.5401 0.00215888 19.375 5.80328e-07Z" fill="#028E46"/>
<path d="M15.4167 8.85C15.1957 8.85 14.9837 8.9378 14.8274 9.09408C14.6711 9.25036 14.5833 9.46232 14.5833 9.68333V18.3333H1.66667V5.41667H10.3083C10.5293 5.41667 10.7413 5.32887 10.8976 5.17259C11.0539 5.01631 11.1417 4.80435 11.1417 4.58333C11.1417 4.36232 11.0539 4.15036 10.8976 3.99408C10.7413 3.8378 10.5293 3.75 10.3083 3.75H1.55833C1.14504 3.75 0.748669 3.91418 0.456425 4.20643C0.164181 4.49867 1.57078e-10 4.89504 1.57077e-10 5.30833V18.4333C-5.85754e-06 18.8474 0.163909 19.2446 0.455916 19.5382C0.747923 19.8318 1.14427 19.9978 1.55833 20H14.6833C15.0988 20 15.4973 19.8349 15.7911 19.5411C16.0849 19.2473 16.25 18.8488 16.25 18.4333V9.68333C16.25 9.46232 16.1622 9.25036 16.0059 9.09408C15.8496 8.9378 15.6377 8.85 15.4167 8.85Z" fill="#028E46"/>
</g>
<defs>
<clipPath id="clip0_82_5251">
<rect width="20" height="20" fill="white"/>
</clipPath>
</defs>
</svg>
