<svg width="25" height="24" viewBox="0 0 25 24" fill="none" xmlns="http://www.w3.org/2000/svg">
<g clip-path="url(#clip0_130_2649)">
<path d="M12.625 0C10.2516 0 7.93155 0.703788 5.95816 2.02236C3.98477 3.34094 2.4467 5.21509 1.53845 7.4078C0.630199 9.60051 0.392559 12.0133 0.855582 14.3411C1.3186 16.6689 2.46149 18.8071 4.13972 20.4853C5.81795 22.1635 7.95615 23.3064 10.2839 23.7694C12.6117 24.2324 15.0245 23.9948 17.2172 23.0866C19.4099 22.1783 21.2841 20.6402 22.6026 18.6668C23.9212 16.6935 24.625 14.3734 24.625 12C24.625 8.8174 23.3607 5.76515 21.1103 3.51472C18.8598 1.26428 15.8076 0 12.625 0ZM17.825 17.22C17.7361 17.3178 17.6286 17.3969 17.5089 17.4529C17.3892 17.5089 17.2596 17.5406 17.1275 17.5462C16.9955 17.5518 16.8636 17.5311 16.7396 17.4854C16.6156 17.4397 16.5019 17.3699 16.405 17.28L11.405 12.74C11.3105 12.6422 11.2369 12.5261 11.1887 12.3989C11.1406 12.2716 11.1189 12.1359 11.125 12V6.5C11.125 6.23478 11.2304 5.98043 11.4179 5.79289C11.6054 5.60536 11.8598 5.5 12.125 5.5C12.3902 5.5 12.6446 5.60536 12.8321 5.79289C13.0196 5.98043 13.125 6.23478 13.125 6.5V11.56L17.755 15.81C17.9508 15.9879 18.0682 16.2363 18.0813 16.5005C18.0944 16.7648 18.0023 17.0235 17.825 17.22Z" fill="#028E46"/>
</g>
<defs>
<clipPath id="clip0_130_2649">
<rect width="24" height="24" fill="white" transform="translate(0.625)"/>
</clipPath>
</defs>
</svg>
