<svg width="25" height="24" viewBox="0 0 25 24" fill="none" xmlns="http://www.w3.org/2000/svg">
<g clip-path="url(#clip0_130_2547)">
<path d="M17.4169 16.1783L17.4234 16.1843L17.43 16.19C17.4799 16.2327 17.521 16.2848 17.5507 16.3433C17.5805 16.4018 17.5984 16.4656 17.6036 16.5311C17.6087 16.5966 17.6008 16.6624 17.5805 16.7248C17.5609 16.7848 17.5302 16.8406 17.49 16.8891C17.4465 16.9354 17.3947 16.9731 17.3371 17C17.2772 17.028 17.2124 17.0438 17.1464 17.0466C17.0804 17.0494 17.0145 17.0391 16.9525 17.0162C16.8904 16.9934 16.8336 16.9585 16.7852 16.9135L16.7852 16.9135L16.7811 16.9098L11.785 12.3734C11.7845 12.3729 11.7839 12.3724 11.7834 12.3719C11.7333 12.325 11.6933 12.2683 11.666 12.2052C11.6385 12.1415 11.6245 12.0728 11.625 12.0034H11.625V12V6.5C11.625 6.36739 11.6777 6.24022 11.7714 6.14645C11.8652 6.05268 11.9924 6 12.125 6C12.2576 6 12.3848 6.05268 12.4786 6.14645C12.5723 6.24022 12.625 6.36739 12.625 6.5V11.56V11.7797L12.7869 11.9283L17.4169 16.1783ZM13.125 11.56V6.5C13.125 6.23478 13.0196 5.98043 12.8321 5.79289C12.6446 5.60536 12.3902 5.5 12.125 5.5C11.8598 5.5 11.6054 5.60536 11.4179 5.79289C11.2304 5.98043 11.125 6.23478 11.125 6.5V12L13.125 11.56ZM6.23595 2.4381C8.12711 1.17446 10.3505 0.5 12.625 0.5C15.675 0.5 18.6001 1.7116 20.7567 3.86827C22.9134 6.02494 24.125 8.95001 24.125 12C24.125 14.2745 23.4505 16.4979 22.1869 18.3891C20.9233 20.2802 19.1272 21.7542 17.0259 22.6246C14.9245 23.495 12.6122 23.7228 10.3815 23.279C8.15069 22.8353 6.10158 21.74 4.49328 20.1317C2.88497 18.5234 1.7897 16.4743 1.34597 14.2435C0.902245 12.0128 1.12998 9.70049 2.00039 7.59914C2.8708 5.49779 4.34478 3.70174 6.23595 2.4381ZM6.79152 20.7304C8.51823 21.8842 10.5483 22.5 12.625 22.5C15.4098 22.5 18.0805 21.3938 20.0496 19.4246C22.0188 17.4555 23.125 14.7848 23.125 12C23.125 9.9233 22.5092 7.89323 21.3554 6.16651C20.2017 4.4398 18.5618 3.09399 16.6432 2.29926C14.7246 1.50454 12.6134 1.29661 10.5766 1.70175C8.53976 2.1069 6.66884 3.10693 5.20038 4.57538C3.73193 6.04383 2.7319 7.91475 2.32676 9.95155C1.92162 11.9884 2.12955 14.0996 2.92427 16.0182C3.71899 17.9368 5.0648 19.5767 6.79152 20.7304Z" fill="#0B1932" stroke="#607099"/>
</g>
<defs>
<clipPath id="clip0_130_2547">
<rect width="24" height="24" fill="white" transform="translate(0.625)"/>
</clipPath>
</defs>
</svg>
