<svg width="16" height="16" viewBox="0 0 16 16" fill="none" xmlns="http://www.w3.org/2000/svg">
<g clip-path="url(#clip0_82_5290)">
<path d="M8.00001 0.0601663C5.88863 0.0601069 3.86284 0.89472 2.36426 2.38206C0.865682 3.8694 0.015842 5.88885 6.71898e-06 8.00017C-0.0021107 9.61587 0.496283 11.1926 1.42667 12.5135L0.520007 15.1802C0.501339 15.2388 0.498921 15.3014 0.513009 15.3612C0.527097 15.4211 0.557164 15.476 0.600007 15.5202C0.643734 15.5636 0.698665 15.5941 0.758689 15.6083C0.818714 15.6224 0.88148 15.6196 0.940007 15.6002L3.73334 14.7135C4.77515 15.384 5.95909 15.8021 7.19094 15.9345C8.4228 16.0669 9.66854 15.9099 10.829 15.476C11.9895 15.0421 13.0327 14.3433 13.8755 13.4353C14.7184 12.5272 15.3377 11.4349 15.684 10.2454C16.0304 9.05585 16.0943 7.80187 15.8707 6.58328C15.647 5.36469 15.142 4.21512 14.3959 3.22607C13.6497 2.23702 12.683 1.4358 11.5726 0.886185C10.4623 0.336566 9.23893 0.0537224 8.00001 0.0601663ZM12.8 11.2068C12.5774 11.6317 12.2417 11.9867 11.8299 12.2326C11.4181 12.4785 10.9463 12.6057 10.4667 12.6002C9.66591 12.5085 8.88621 12.2831 8.16001 11.9335C6.53583 11.1928 5.16056 9.99813 4.20001 8.4935C2.92001 6.80683 2.86667 5.22683 4.08667 3.92017C4.25565 3.76169 4.45962 3.64529 4.68203 3.58042C4.90443 3.51555 5.13899 3.50405 5.36667 3.54683C5.53893 3.56846 5.70281 3.63369 5.8428 3.73635C5.9828 3.83902 6.09427 3.97571 6.16667 4.1335L6.42667 4.74683L6.84667 5.7535C6.89935 5.85672 6.92681 5.97095 6.92681 6.08683C6.92681 6.20272 6.89935 6.31695 6.84667 6.42017C6.67604 6.75911 6.45081 7.06767 6.18001 7.3335C6.52683 7.85136 6.92922 8.32975 7.38001 8.76017C7.91686 9.2299 8.53317 9.60014 9.20001 9.8535C9.38667 9.60683 9.74667 9.18683 9.86667 9.00017C9.95668 8.8535 10.0999 8.74731 10.2664 8.70382C10.4329 8.66033 10.6098 8.68291 10.76 8.76683C11.0133 8.8535 12.4333 9.5535 12.4333 9.5535C12.6149 9.61236 12.7734 9.72659 12.8867 9.88017C12.9896 10.0896 13.0357 10.3223 13.0205 10.5551C13.0053 10.7879 12.9293 11.0126 12.8 11.2068Z" fill="#028E46"/>
</g>
<defs>
<clipPath id="clip0_82_5290">
<rect width="16" height="16" fill="white"/>
</clipPath>
</defs>
</svg>
